<svg width="711" height="554" viewBox="0 0 711 554" fill="none" xmlns="http://www.w3.org/2000/svg">
<g clip-path="url(#clip0_213_273)">
<path d="M147.603 364.402C115.458 332.719 101.881 299.666 109.373 271.332C118.987 234.972 161.7 209.832 226.559 202.358L226.798 204.444C162.843 211.813 120.782 236.389 111.4 271.869C104.109 299.444 117.488 331.775 149.074 362.906L147.603 364.402Z" fill="#F0F0F0"/>
<path d="M457.753 476.865C417.634 476.865 374.037 470.896 330.732 459.418C277.181 445.224 228.08 423.8 188.738 397.461L189.903 395.716C229.055 421.928 277.939 443.254 331.269 457.389C379.462 470.163 428.017 476.082 471.666 474.52L471.742 476.617C467.132 476.783 462.469 476.866 457.753 476.865Z" fill="#F0F0F0"/>
<path d="M549.793 463.665L549.121 461.677C585.002 449.531 607.445 429.965 614.022 405.092C622.383 373.473 604.219 336.781 562.877 301.775C521.325 266.591 461.405 237.398 394.153 219.573L394.69 217.544C462.235 235.447 522.447 264.792 564.231 300.173C606.226 335.731 624.629 373.183 616.049 405.629C609.283 431.215 586.372 451.283 549.793 463.665Z" fill="#F0F0F0"/>
<path d="M220.317 477.743C141.484 442.738 80.7376 397.323 49.2683 349.864L51.0147 348.703C82.2665 395.834 142.694 440.979 221.166 475.824L220.317 477.743Z" fill="#F0F0F0"/>
<path d="M497.486 538.386C489.355 538.386 481.085 538.204 472.676 537.841L472.766 535.744C535.519 538.464 590.888 530.945 632.896 513.996L633.68 515.943C597.035 530.727 550.328 538.386 497.486 538.386Z" fill="#F0F0F0"/>
<path d="M451.746 204.24C438.717 199.993 425.314 196.038 411.912 192.486C334.788 172.044 258.973 164.786 192.663 171.501L192.452 169.412C259.01 162.675 335.084 169.951 412.449 190.457C425.889 194.019 439.329 197.985 452.395 202.245L451.746 204.24Z" fill="#F0F0F0"/>
<path d="M98.335 367.55C66.1895 335.867 52.6127 302.814 60.1046 274.481C69.7192 238.12 112.432 212.98 177.29 205.507L177.53 207.592C113.574 214.961 71.5132 239.537 62.1316 275.018C54.8403 302.592 68.22 334.923 99.806 366.055L98.335 367.55Z" fill="#F0F0F0"/>
<path d="M408.485 480.014C368.365 480.014 324.768 474.045 281.464 462.567C227.913 448.373 178.812 426.948 139.47 400.609L140.635 398.865C179.787 425.077 228.671 446.403 282.001 460.537C330.194 473.312 378.749 479.231 422.398 477.669L422.474 479.766C417.864 479.932 413.201 480.015 408.485 480.014Z" fill="#F0F0F0"/>
<path d="M500.524 466.814L499.853 464.826C535.734 452.679 558.177 433.113 564.754 408.241C573.114 376.622 554.951 339.93 513.609 304.924C472.056 269.74 412.137 240.546 344.885 222.722L345.421 220.692C412.967 238.595 473.178 267.94 514.962 303.321C556.957 338.88 575.36 376.332 566.781 408.778C560.015 434.364 537.104 454.432 500.524 466.814Z" fill="#F0F0F0"/>
<path d="M171.048 480.891C92.2158 445.886 31.4693 400.472 0 353.013L1.74643 351.852C32.9983 398.982 93.4259 444.128 171.898 478.973L171.048 480.891Z" fill="#F0F0F0"/>
<path d="M448.218 541.534C440.086 541.534 431.816 541.353 423.407 540.989L423.497 538.892C486.251 541.612 541.619 534.094 583.628 517.145L584.412 519.092C547.767 533.875 501.06 541.534 448.218 541.534Z" fill="#F0F0F0"/>
<path d="M402.478 207.389C389.448 203.142 376.046 199.187 362.644 195.635C285.519 175.193 209.705 167.935 143.394 174.65L143.184 172.561C209.742 165.824 285.815 173.099 363.18 193.605C376.62 197.168 390.061 201.134 403.127 205.393L402.478 207.389Z" fill="#F0F0F0"/>
<path d="M35.7341 311.329C50.8 294.417 74.8327 284.11 96.6117 290.28C76.5197 304.516 62.1045 325.408 55.9168 349.26C53.5637 358.467 51.9042 368.953 44.2559 374.583C39.497 378.086 33.1914 378.923 27.3389 378.125C21.4862 377.327 15.9523 375.048 10.4931 372.79L9.02405 372.918C13.2476 350.655 20.6682 328.241 35.7341 311.329Z" fill="#F2F2F2"/>
<path d="M96.5452 290.751C78.3365 295.165 61.9798 305.211 49.7985 319.462C47.1217 322.483 44.9374 325.908 43.3258 329.61C41.8724 333.268 41.4237 337.248 42.0263 341.138C42.5154 344.776 43.4366 348.44 43.0339 352.134C42.7997 354.022 42.1696 355.839 41.185 357.465C40.2003 359.092 38.8833 360.492 37.3203 361.574C33.4958 364.37 28.8959 365.623 24.3551 366.692C19.3133 367.88 14.0577 369.033 9.94791 372.388C9.44994 372.794 8.84912 371.997 9.34634 371.591C16.4967 365.754 26.4342 366.504 34.3454 362.264C38.037 360.286 41.1554 357.182 41.9136 352.923C42.5766 349.199 41.63 345.419 41.103 341.74C40.4595 337.954 40.7517 334.068 41.9541 330.421C43.3722 326.648 45.4211 323.145 48.0132 320.061C53.7382 313.024 60.5327 306.932 68.1478 302.008C76.8077 296.34 86.3722 292.198 96.4274 289.759C97.0499 289.608 97.1636 290.601 96.5452 290.751Z" fill="white"/>
<path d="M53.451 314.642C51.3403 312.271 50.1401 309.226 50.0646 306.051C49.9891 302.876 51.0433 299.778 53.039 297.309C53.4445 296.811 54.2367 297.419 53.8306 297.917C51.968 300.213 50.9863 303.099 51.0626 306.056C51.1389 309.012 52.2683 311.844 54.2468 314.04C54.6762 314.517 53.878 315.117 53.451 314.642Z" fill="white"/>
<path d="M41.5357 339.326C48.0059 339.756 54.4004 337.729 59.444 333.649C59.9434 333.244 60.5444 334.041 60.0456 334.445C54.7891 338.682 48.1304 340.778 41.3983 340.315C40.7567 340.271 40.8975 339.282 41.5357 339.326Z" fill="white"/>
<path d="M77.0319 297.646C77.6577 298.733 78.5435 299.648 79.6098 300.308C80.6761 300.969 81.8895 301.353 83.141 301.428C83.7828 301.465 83.6413 302.454 83.0036 302.417C81.6213 302.328 80.2818 301.902 79.1021 301.175C77.9224 300.448 76.9384 299.443 76.2361 298.248C76.1605 298.141 76.1285 298.009 76.1465 297.879C76.1646 297.749 76.2313 297.631 76.3332 297.548C76.439 297.469 76.5717 297.435 76.7026 297.453C76.8334 297.471 76.9517 297.54 77.0319 297.646Z" fill="white"/>
<path d="M127.527 360.487C127.126 360.475 126.725 360.464 126.318 360.459C120.92 360.335 115.521 360.651 110.174 361.402C109.76 361.454 109.341 361.512 108.929 361.576C96.0659 363.524 83.6763 367.846 72.3895 374.322C67.9006 376.904 63.6143 379.823 59.5678 383.055C53.9798 387.52 48.2755 392.805 41.7333 395.093C41.0534 395.339 40.359 395.543 39.6539 395.704L9.29327 374.702C9.24819 374.62 9.19802 374.544 9.1526 374.462L7.9021 373.678C8.09916 373.497 8.30744 373.313 8.50451 373.132C8.61839 373.026 8.73906 372.926 8.8529 372.82C8.93096 372.751 9.0094 372.682 9.0759 372.615C9.1018 372.592 9.12803 372.57 9.14917 372.553C9.21568 372.487 9.28452 372.432 9.34623 372.372C10.5076 371.342 11.6783 370.317 12.8582 369.3C12.863 369.293 12.863 369.293 12.8746 369.29C21.8847 361.558 31.6187 354.511 42.1116 349.167C42.4274 349.006 42.7476 348.839 43.0772 348.687C47.8203 346.305 52.7499 344.315 57.8168 342.736C60.5941 341.881 63.4129 341.167 66.2623 340.597C73.6275 339.138 81.1761 338.849 88.6312 339.739C103.493 341.515 117.621 348.03 126.832 359.596C127.068 359.892 127.297 360.184 127.527 360.487Z" fill="#F2F2F2"/>
<path d="M127.193 360.825C110 353.373 90.8988 351.535 72.6028 355.571C68.6487 356.37 64.845 357.788 61.3319 359.772C57.9721 361.816 55.2202 364.724 53.3623 368.193C51.5651 371.393 50.0969 374.874 47.5541 377.58C46.232 378.946 44.6364 380.017 42.8719 380.722C41.1074 381.428 39.214 381.752 37.3157 381.673C32.5806 381.6 28.1541 379.828 23.8855 377.945C19.146 375.854 14.2562 373.606 8.95746 373.808C8.31544 373.832 8.31521 372.833 8.95626 372.809C18.1752 372.459 25.6591 379.047 34.5251 380.431C38.6621 381.077 43.0186 380.479 46.1852 377.535C48.9543 374.961 50.4715 371.372 52.2632 368.117C54.0261 364.706 56.5963 361.78 59.7493 359.593C63.1502 357.435 66.8929 355.873 70.8173 354.973C79.62 352.805 88.7084 352.037 97.7496 352.696C108.072 353.39 118.2 355.848 127.695 359.962C128.283 360.217 127.777 361.078 127.193 360.825Z" fill="white"/>
<path d="M78.4177 353.924C78.1581 350.759 79.0307 347.604 80.8798 345.024C82.7288 342.443 85.4339 340.605 88.5118 339.837C89.1351 339.684 89.4023 340.646 88.7781 340.8C85.9106 341.51 83.391 343.222 81.6741 345.629C79.9572 348.035 79.156 350.977 79.4153 353.923C79.4708 354.563 78.4729 354.561 78.4177 353.924Z" fill="white"/>
<path d="M54.0602 366.45C58.9675 370.694 65.2922 372.93 71.773 372.712C72.4151 372.69 72.4155 373.689 71.7742 373.711C65.0297 373.925 58.4526 371.585 53.3556 367.158C52.8701 366.735 53.5773 366.03 54.0602 366.45Z" fill="white"/>
<path d="M107.467 354.568C107.312 355.813 107.469 357.078 107.923 358.248C108.378 359.418 109.115 360.456 110.07 361.27C110.56 361.686 109.852 362.391 109.365 361.978C108.315 361.073 107.502 359.925 106.997 358.634C106.492 357.342 106.311 355.947 106.469 354.569C106.473 354.438 106.527 354.313 106.619 354.22C106.712 354.127 106.836 354.073 106.967 354.069C107.099 354.069 107.226 354.122 107.319 354.216C107.413 354.309 107.466 354.435 107.467 354.568Z" fill="white"/>
<path d="M626.07 449.966C617.558 428.968 598.384 411.173 575.8 409.656C589.944 429.824 596.508 454.351 594.328 478.898C593.453 488.362 591.496 498.796 596.81 506.672C600.116 511.573 605.774 514.483 611.554 515.701C617.334 516.919 623.311 516.635 629.21 516.345L630.551 516.959C634.047 494.57 634.582 470.963 626.07 449.966Z" fill="#F2F2F2"/>
<path d="M575.705 410.121C591.372 420.406 603.405 435.371 610.094 452.893C611.601 456.639 612.508 460.599 612.783 464.629C612.924 468.562 612.011 472.462 610.137 475.923C608.455 479.185 606.358 482.326 605.497 485.94C605.084 487.797 605.067 489.72 605.448 491.584C605.83 493.447 606.6 495.209 607.709 496.753C610.373 500.674 614.284 503.402 618.202 505.937C622.552 508.752 627.114 511.607 629.859 516.149C630.192 516.699 631.025 516.15 630.693 515.601C625.918 507.698 616.307 505.06 610.279 498.405C607.466 495.3 605.571 491.327 606.287 487.06C606.913 483.33 609.073 480.088 610.805 476.8C612.682 473.451 613.711 469.693 613.803 465.854C613.734 461.823 612.98 457.834 611.574 454.057C608.545 445.503 604.19 437.479 598.671 430.28C592.418 422.027 584.8 414.907 576.149 409.227C575.613 408.875 575.173 409.772 575.705 410.121Z" fill="white"/>
<path d="M608.272 447.124C611.056 445.601 613.208 443.138 614.345 440.173C615.482 437.208 615.529 433.935 614.478 430.938C614.264 430.333 613.314 430.638 613.529 431.245C614.512 434.033 614.468 437.082 613.404 439.841C612.339 442.599 610.325 444.886 607.724 446.289C607.16 446.594 607.71 447.428 608.272 447.124Z" fill="white"/>
<path d="M611.208 474.381C604.969 472.609 599.627 468.548 596.247 463.008C595.913 462.459 595.079 463.008 595.413 463.556C598.942 469.315 604.509 473.53 611.005 475.359C611.624 475.533 611.824 474.554 611.208 474.381Z" fill="white"/>
<path d="M591.768 423.181C590.814 423.995 589.672 424.559 588.447 424.822C587.221 425.085 585.949 425.039 584.745 424.688C584.128 424.506 583.929 425.485 584.542 425.666C585.874 426.047 587.279 426.096 588.634 425.809C589.989 425.521 591.253 424.906 592.316 424.016C592.423 423.941 592.497 423.827 592.524 423.699C592.551 423.57 592.527 423.437 592.459 423.325C592.386 423.214 592.273 423.138 592.143 423.111C592.014 423.084 591.879 423.109 591.768 423.181Z" fill="white"/>
<path d="M523.115 465.375C523.497 465.499 523.878 465.624 524.263 465.756C529.388 467.456 534.367 469.57 539.151 472.077C539.524 472.265 539.899 472.461 540.266 472.659C551.726 478.822 561.944 487.062 570.4 496.96C573.762 500.901 576.818 505.093 579.544 509.499C583.309 515.584 586.907 522.482 592.3 526.838C592.858 527.299 593.444 527.724 594.054 528.113L629.698 518.549C629.769 518.487 629.841 518.433 629.912 518.37L631.352 518.053C631.228 517.816 631.093 517.573 630.968 517.336C630.897 517.198 630.817 517.062 630.745 516.925C630.695 516.833 630.644 516.742 630.604 516.657C630.587 516.627 630.57 516.596 630.556 516.574C630.515 516.489 630.469 516.414 630.431 516.337C629.683 514.976 628.924 513.617 628.155 512.261C628.152 512.253 628.152 512.253 628.142 512.247C622.252 501.933 615.45 492.02 607.362 483.456C607.118 483.199 606.873 482.933 606.613 482.68C602.946 478.84 598.971 475.306 594.729 472.115C592.4 470.374 589.985 468.753 587.493 467.258C581.046 463.406 574.034 460.593 566.713 458.922C552.12 455.594 536.626 456.976 524.068 464.77C523.747 464.97 523.434 465.167 523.115 465.375Z" fill="#F2F2F2"/>
<path d="M523.316 465.806C542.01 464.573 560.618 469.269 576.494 479.227C579.95 481.31 583.057 483.926 585.699 486.977C588.177 490.033 589.793 493.697 590.378 497.589C590.997 501.208 591.211 504.98 592.697 508.385C593.484 510.117 594.627 511.662 596.052 512.92C597.477 514.178 599.152 515.12 600.966 515.685C605.45 517.21 610.214 517.031 614.867 516.693C620.032 516.318 625.392 515.847 630.315 517.82C630.912 518.059 631.247 517.118 630.652 516.88C622.086 513.448 612.826 517.135 604.011 515.455C599.898 514.671 595.996 512.641 594.002 508.803C592.258 505.447 592.034 501.557 591.439 497.888C590.924 494.082 589.485 490.461 587.25 487.34C584.771 484.164 581.771 481.433 578.377 479.265C570.814 474.261 562.512 470.479 553.776 468.057C543.82 465.238 533.456 464.145 523.133 464.824C522.494 464.867 522.681 465.848 523.316 465.806Z" fill="white"/>
<path d="M571.57 475.72C572.878 472.826 573.115 469.561 572.239 466.509C571.364 463.456 569.434 460.814 566.793 459.055C566.257 458.701 565.682 459.518 566.219 459.872C568.681 461.506 570.479 463.967 571.288 466.811C572.097 469.655 571.865 472.695 570.631 475.383C570.364 475.967 571.305 476.301 571.57 475.72Z" fill="white"/>
<path d="M590.306 495.713C584.259 498.059 577.552 498.037 571.521 495.651C570.924 495.414 570.588 496.354 571.185 496.591C577.465 499.062 584.445 499.071 590.732 496.617C591.331 496.382 590.902 495.48 590.306 495.713Z" fill="white"/>
<path d="M543.995 466.551C543.723 467.776 543.15 468.914 542.33 469.863C541.509 470.812 540.466 471.542 539.294 471.988C538.692 472.214 539.122 473.116 539.72 472.891C541.013 472.392 542.164 471.585 543.073 470.538C543.982 469.492 544.621 468.238 544.935 466.888C544.975 466.763 544.966 466.627 544.91 466.509C544.854 466.39 544.755 466.297 544.633 466.249C544.509 466.205 544.372 466.212 544.252 466.269C544.133 466.325 544.041 466.427 543.995 466.551Z" fill="white"/>
<path d="M460.929 521.466C465.561 521.466 469.315 517.707 469.315 513.07C469.315 508.433 465.561 504.674 460.929 504.674C456.298 504.674 452.543 508.433 452.543 513.07C452.543 517.707 456.298 521.466 460.929 521.466Z" fill="#FD6584"/>
<path d="M490.634 378.462C495.266 378.462 499.02 374.703 499.02 370.066C499.02 365.429 495.266 361.67 490.634 361.67C486.003 361.67 482.248 365.429 482.248 370.066C482.248 374.703 486.003 378.462 490.634 378.462Z" fill="#E6E6E6"/>
<path d="M334.589 145.57C339.22 145.57 342.975 141.811 342.975 137.174C342.975 132.537 339.22 128.778 334.589 128.778C329.957 128.778 326.203 132.537 326.203 137.174C326.203 141.811 329.957 145.57 334.589 145.57Z" fill="#E6E6E6"/>
<path d="M158.854 459.247C158.854 461.385 158.924 463.522 159.073 465.642C159.231 468.175 159.504 470.69 159.873 473.188C161.113 481.599 163.483 489.803 166.918 497.578C167.094 497.965 167.27 498.352 167.445 498.739L167.709 499.319C167.797 499.513 167.893 499.706 167.981 499.891C168.104 500.146 168.218 500.392 168.341 500.638C168.491 500.946 168.64 501.254 168.798 501.562C168.816 501.597 168.833 501.641 168.86 501.685C168.992 501.949 169.115 502.204 169.255 502.468C169.281 502.525 169.31 502.581 169.343 502.635C169.492 502.934 169.65 503.242 169.809 503.541C169.984 503.857 170.151 504.183 170.327 504.5C170.749 505.282 171.188 506.056 171.636 506.83C171.768 507.059 171.899 507.288 172.04 507.516C172.163 507.727 172.286 507.938 172.418 508.15C172.505 508.29 172.593 508.44 172.681 508.581C172.822 508.818 172.962 509.047 173.112 509.284C173.437 509.803 173.77 510.322 174.096 510.841H174.104C174.254 511.078 174.412 511.316 174.57 511.545V511.553C175.036 512.257 175.519 512.961 176.002 513.655L176.005 513.656L176.008 513.658L176.01 513.661L176.011 513.664C176.397 514.227 176.801 514.772 177.197 515.318V515.327C177.46 515.67 177.715 516.021 177.978 516.364C178.189 516.646 178.409 516.936 178.629 517.218C178.672 517.279 178.725 517.332 178.769 517.393V517.402C178.831 517.481 178.892 517.552 178.954 517.631C179.885 518.827 180.845 519.997 181.835 521.14L181.993 521.325C182.046 521.387 182.107 521.448 182.16 521.519C182.248 521.615 182.327 521.712 182.415 521.809C182.494 521.906 182.582 522.002 182.67 522.099C187.829 527.918 193.679 533.084 200.09 537.482C200.942 538.071 201.812 538.643 202.682 539.197C202.901 539.338 203.121 539.479 203.341 539.611C203.402 539.655 203.472 539.699 203.534 539.743C203.657 539.813 203.771 539.883 203.894 539.962C204.008 540.033 204.122 540.103 204.245 540.174C204.711 540.464 205.185 540.745 205.66 541.027C205.774 541.097 205.897 541.167 206.02 541.238C206.134 541.299 206.257 541.37 206.38 541.44C206.38 541.449 206.38 541.449 206.389 541.449H206.398V541.458H206.406C206.995 541.801 207.592 542.135 208.199 542.46C208.524 542.636 208.857 542.821 209.191 542.988C209.947 543.401 210.711 543.797 211.475 544.175C211.748 544.307 212.029 544.439 212.301 544.58C212.53 544.686 212.758 544.8 212.986 544.905C213.057 544.941 213.118 544.967 213.18 545.002C213.373 545.09 213.557 545.178 213.751 545.266C213.961 545.363 214.172 545.46 214.374 545.556C214.612 545.662 214.84 545.767 215.077 545.864C215.956 546.26 216.843 546.638 217.73 546.999C220.91 548.304 224.16 549.431 227.464 550.376C227.613 550.42 227.771 550.464 227.929 550.508C229.344 550.904 230.767 551.265 232.199 551.59C234.703 552.17 237.23 552.645 239.78 553.015H239.798C240.105 553.059 240.404 553.103 240.712 553.147C240.738 553.147 240.764 553.156 240.799 553.156C240.799 553.164 240.799 553.164 240.808 553.156C241.142 553.2 241.485 553.244 241.818 553.288C241.841 553.294 241.865 553.297 241.889 553.296C242.205 553.34 242.53 553.375 242.846 553.411C243.189 553.446 243.532 553.481 243.874 553.516C244.138 553.543 244.401 553.569 244.665 553.595C244.687 553.603 244.711 553.606 244.735 553.604C244.972 553.622 245.209 553.648 245.447 553.666H245.482C245.684 553.683 245.895 553.701 246.097 553.719C248.548 553.912 251.008 554 253.502 554C256.199 554 258.879 553.894 261.523 553.666H261.549C262.12 553.613 262.683 553.56 263.245 553.507C263.394 553.49 263.535 553.481 263.684 553.463C263.711 553.463 263.746 553.455 263.772 553.455C263.816 553.446 263.86 553.446 263.913 553.437C263.936 553.438 263.96 553.435 263.983 553.428C264.176 553.411 264.369 553.384 264.571 553.367L265.23 553.288C265.45 553.261 265.67 553.226 265.889 553.2C265.942 553.191 265.986 553.191 266.039 553.182C266.197 553.164 266.355 553.138 266.513 553.112C266.592 553.103 266.671 553.094 266.741 553.085C266.899 553.059 267.049 553.041 267.207 553.015H267.216C272.036 552.32 276.795 551.247 281.447 549.805C281.693 549.725 281.939 549.655 282.185 549.576C282.194 549.576 282.203 549.567 282.212 549.567C282.282 549.541 282.361 549.523 282.431 549.497C283.09 549.286 283.74 549.066 284.39 548.837C285.286 548.538 286.174 548.213 287.061 547.878C287.298 547.782 287.535 547.694 287.772 547.597C288.256 547.412 288.73 547.219 289.204 547.025C290.013 546.7 290.821 546.357 291.62 546.005C292.367 545.671 293.105 545.336 293.843 544.985C293.86 544.976 293.887 544.976 293.904 544.958C294.071 544.879 294.238 544.8 294.396 544.721H294.405C298.451 542.777 302.352 540.546 306.08 538.045C307.275 537.245 308.452 536.418 309.612 535.565C310.543 534.87 311.457 534.166 312.37 533.445C316.877 529.856 321.05 525.864 324.836 521.519V521.51C325.108 521.211 325.363 520.903 325.627 520.595C325.671 520.551 325.706 520.507 325.741 520.472C325.908 520.27 326.066 520.076 326.233 519.883V519.874C326.452 519.619 326.672 519.355 326.883 519.091C326.936 519.03 326.979 518.977 327.023 518.924V518.915C327.199 518.704 327.366 518.493 327.542 518.273C327.63 518.168 327.709 518.062 327.796 517.956V517.948C328.315 517.297 328.815 516.646 329.316 515.977C329.448 515.802 329.58 515.617 329.72 515.432C330.353 514.579 330.968 513.708 331.565 512.838V512.829C331.794 512.503 332.013 512.169 332.242 511.844C332.461 511.509 332.681 511.175 332.9 510.841C333.12 510.489 333.349 510.146 333.568 509.794L333.595 509.742C333.814 509.407 334.034 509.056 334.245 508.713C334.412 508.431 334.578 508.158 334.745 507.886C334.851 507.701 334.965 507.516 335.07 507.323C335.112 507.263 335.15 507.202 335.185 507.138C335.431 506.707 335.677 506.276 335.923 505.845C336.212 505.344 336.494 504.834 336.775 504.324C336.88 504.113 336.994 503.902 337.109 503.69C337.152 503.62 337.188 503.55 337.223 503.479C337.354 503.233 337.486 502.978 337.609 502.723C337.741 502.477 337.873 502.222 338.005 501.967C338.127 501.72 338.259 501.465 338.382 501.21C338.479 501.017 338.567 500.823 338.663 500.63C338.67 500.614 338.679 500.599 338.69 500.586C338.734 500.489 338.778 500.401 338.813 500.313C338.824 500.3 338.832 500.285 338.839 500.269C338.936 500.076 339.024 499.873 339.12 499.68C339.243 499.425 339.357 499.161 339.48 498.906C339.559 498.73 339.647 498.545 339.726 498.36C339.841 498.105 339.964 497.85 340.069 497.586C340.192 497.323 340.306 497.059 340.42 496.786C340.453 496.72 340.483 496.653 340.508 496.584C340.57 496.461 340.614 496.337 340.666 496.214C340.807 495.889 340.947 495.555 341.079 495.229C341.237 494.86 341.387 494.482 341.527 494.112C341.668 493.769 341.8 493.417 341.931 493.066L341.984 492.942C344.031 487.545 345.583 481.972 346.623 476.293V476.284C347.209 473.042 347.628 469.771 347.879 466.486C347.888 466.301 347.905 466.125 347.914 465.949C348.072 463.724 348.142 461.49 348.142 459.247C348.142 458.253 348.125 457.268 348.098 456.283C347.485 435.681 340.147 415.848 327.208 399.817C326.927 399.465 326.646 399.113 326.356 398.761C326.066 398.41 325.767 398.067 325.477 397.724C315.847 386.432 303.701 377.564 290.02 371.835C276.338 366.105 261.503 363.674 246.711 364.738C231.919 365.802 217.584 370.331 204.861 377.959C192.137 385.588 181.383 396.103 173.463 408.656C173.033 409.342 172.602 410.037 172.189 410.732C171.768 411.436 171.363 412.139 170.959 412.852C163.001 427.015 158.831 442.996 158.854 459.247Z" fill="#F2F2F2"/>
<path d="M249.741 397.269C265.304 401.268 281.252 403.572 297.309 404.143C299.737 404.276 302.171 404.259 304.597 404.094C309.929 403.645 314.496 401.967 319.582 401.05C322.027 400.611 324.751 400.289 327.212 399.814C326.644 399.108 326.065 398.41 325.475 397.721C320.167 398.17 314.777 399.639 309.405 400.322C300.274 401.485 290.042 400.188 283.12 396.988C279.762 395.436 277.189 393.498 273.842 391.939C273.387 391.705 272.894 391.553 272.386 391.492C271.421 391.463 270.468 391.711 269.639 392.206C264.024 395.043 255.872 397.35 248.306 396.081C247.741 396.523 248.813 397.026 249.741 397.269Z" fill="white"/>
<path d="M216.257 407.257C216.188 407.244 216.119 407.234 216.05 407.222C216.34 407.042 216.614 406.835 216.867 406.605L216.257 407.257Z" fill="white"/>
<path d="M170.961 412.855C174.121 413.108 177.298 413.297 180.491 413.42C182.92 413.551 185.353 413.535 187.78 413.371C193.111 412.919 197.678 411.244 202.764 410.327C207.425 409.488 213.09 409.084 216.049 407.222C208.4 405.897 200.475 408.595 192.587 409.599C186.207 410.385 179.739 410.065 173.468 408.654C172.594 410.029 171.759 411.43 170.961 412.855Z" fill="white"/>
<path d="M209.191 542.988C209.947 543.402 210.711 543.797 211.475 544.176C211.748 544.307 212.029 544.439 212.301 544.58C212.53 544.686 212.758 544.8 212.986 544.906C213.057 544.941 213.118 544.967 213.18 545.002C213.373 545.09 213.557 545.178 213.751 545.266C213.961 545.363 214.172 545.46 214.374 545.556C214.612 545.662 214.84 545.768 215.077 545.864C215.956 546.26 216.843 546.638 217.73 546.999C220.91 548.304 224.16 549.431 227.464 550.376C227.613 550.42 227.771 550.464 227.93 550.508C229.344 550.904 230.767 551.265 232.199 551.59C234.703 552.171 237.23 552.646 239.78 553.015H239.798C240.105 553.059 240.404 553.103 240.712 553.147C240.738 553.147 240.764 553.156 240.799 553.156C240.799 553.164 240.799 553.164 240.808 553.156C241.142 553.2 241.485 553.244 241.819 553.288C241.841 553.294 241.865 553.297 241.889 553.296C242.205 553.34 242.53 553.375 242.846 553.411C243.189 553.446 243.532 553.481 243.874 553.516C244.138 553.543 244.401 553.569 244.665 553.595C244.687 553.603 244.711 553.606 244.735 553.604C244.972 553.622 245.209 553.648 245.447 553.666H245.482C245.684 553.683 245.895 553.701 246.097 553.719C248.548 553.912 251.008 554 253.502 554C256.199 554 258.879 553.894 261.523 553.666H261.549C262.12 553.613 262.683 553.56 263.245 553.507C263.394 553.49 263.535 553.481 263.684 553.463C263.711 553.463 263.746 553.455 263.772 553.455C263.816 553.446 263.86 553.446 263.913 553.437C263.936 553.438 263.96 553.435 263.983 553.428C264.176 553.411 264.369 553.384 264.571 553.367L265.23 553.288C265.45 553.261 265.67 553.226 265.889 553.2C265.942 553.191 265.986 553.191 266.039 553.182C266.197 553.164 266.355 553.138 266.513 553.112C266.592 553.103 266.671 553.094 266.741 553.085C266.899 553.059 267.049 553.041 267.207 553.015H267.216C272.036 552.32 276.795 551.247 281.447 549.805C281.693 549.725 281.939 549.655 282.185 549.576C281.051 544.28 278.716 539.315 275.36 535.067C272.004 530.818 267.718 527.398 262.832 525.072C264.041 523.919 264.876 522.43 265.23 520.797C265.458 519.745 265.476 518.658 265.283 517.598C265.091 516.538 264.69 515.527 264.106 514.623C262.966 512.871 261.177 511.643 259.134 511.21L246.114 508.484C244.019 508.075 241.846 508.511 240.069 509.696C238.293 510.882 237.056 512.722 236.627 514.817C236.494 515.459 236.435 516.114 236.451 516.769C223.915 525.125 214.893 533.788 209.191 542.988Z" fill="#6C63FF"/>
<path d="M247.633 503.336C262.613 503.336 274.757 491.177 274.757 476.179C274.757 461.181 262.613 449.023 247.633 449.023C232.653 449.023 220.509 461.181 220.509 476.179C220.509 491.177 232.653 503.336 247.633 503.336Z" fill="#FFB8B8"/>
<path d="M230.726 499.592C227.834 497.614 224.88 493.813 222.908 490.964C220.295 487.219 218.497 482.966 217.631 478.481C216.765 473.996 216.849 469.379 217.879 464.929C218.208 463.149 219.015 461.493 220.214 460.139C221.491 458.874 223.578 458.274 225.137 459.169C224.712 458.028 224.524 456.812 224.586 455.596C224.649 454.379 224.959 453.189 225.499 452.097C226.595 449.918 228.183 448.025 230.137 446.567C233.874 443.686 238.32 441.871 243.004 441.316C247.688 440.761 252.435 441.486 256.74 443.414C258.435 444.2 255.652 438.129 257.425 438.714C259.187 439.397 261.146 439.363 262.882 438.618C264.55 437.778 270.079 442.772 269.439 441.016C270.705 441.591 271.804 442.478 272.636 443.593C273.467 444.709 274.003 446.017 274.193 447.395C274.384 448.774 274.222 450.179 273.725 451.478C273.227 452.778 272.409 453.93 271.347 454.828C269.947 456.011 268.199 456.692 266.666 457.696C263.981 459.588 262.08 462.398 261.323 465.597C260.565 468.796 261.004 472.162 262.556 475.059C260.943 474.021 259.174 473.251 257.316 472.779C256.384 472.551 255.411 472.55 254.478 472.774C253.545 472.999 252.68 473.443 251.953 474.07C251.346 474.766 250.887 475.579 250.605 476.458C250.323 477.338 250.224 478.266 250.313 479.186C250.374 481.029 250.811 482.844 250.861 484.687C251.005 490.096 253.898 500.378 249.71 503.253C246.404 505.522 234.676 502.293 230.726 499.592Z" fill="#2F2E41"/>
<path d="M266.283 340.255C265.712 340.254 265.146 340.139 264.619 339.918C263.833 339.602 263.16 339.055 262.69 338.35C262.219 337.644 261.972 336.813 261.981 335.965V331.666C261.98 330.764 261.621 329.9 260.985 329.262C260.348 328.625 259.485 328.266 258.584 328.265C257.451 328.264 256.364 327.813 255.562 327.01C254.761 326.208 254.31 325.12 254.309 323.985V265.095C254.31 263.96 254.761 262.872 255.562 262.07C256.364 261.267 257.45 260.816 258.584 260.815H453.456C454.59 260.816 455.677 261.267 456.478 262.07C457.28 262.872 457.731 263.96 457.732 265.095V323.985C457.731 325.12 457.28 326.208 456.478 327.01C455.677 327.813 454.59 328.264 453.456 328.265H281.399C280.953 328.264 280.511 328.351 280.098 328.522C279.686 328.693 279.312 328.944 278.997 329.261L269.279 338.991C268.888 339.389 268.422 339.707 267.908 339.924C267.393 340.141 266.841 340.253 266.283 340.255Z" fill="white"/>
<path d="M266.283 341.134C265.596 341.134 264.916 340.996 264.283 340.731C263.335 340.349 262.524 339.69 261.957 338.84C261.389 337.989 261.091 336.987 261.102 335.965V331.667C261.102 330.998 260.836 330.357 260.364 329.884C259.892 329.412 259.252 329.146 258.584 329.145C257.218 329.143 255.908 328.599 254.941 327.632C253.975 326.664 253.432 325.352 253.43 323.984V265.095C253.432 263.727 253.975 262.416 254.941 261.448C255.907 260.481 257.217 259.937 258.584 259.935H453.457C454.823 259.937 456.133 260.481 457.099 261.448C458.065 262.416 458.609 263.727 458.61 265.095V323.984C458.609 325.352 458.066 326.664 457.099 327.632C456.133 328.599 454.823 329.143 453.457 329.145H281.399C281.068 329.144 280.74 329.209 280.435 329.335C280.129 329.462 279.851 329.648 279.618 329.883L269.9 339.612C269.428 340.093 268.865 340.475 268.244 340.736C267.623 340.998 266.957 341.133 266.283 341.134ZM258.584 261.694C257.683 261.695 256.82 262.054 256.183 262.692C255.546 263.329 255.188 264.194 255.187 265.095V323.984C255.188 324.886 255.546 325.751 256.183 326.388C256.82 327.026 257.683 327.385 258.584 327.386C259.718 327.387 260.804 327.839 261.606 328.641C262.407 329.444 262.858 330.532 262.859 331.667V335.965C262.859 336.637 263.059 337.295 263.432 337.854C263.805 338.413 264.336 338.849 264.956 339.106C265.577 339.363 266.26 339.431 266.919 339.299C267.577 339.168 268.183 338.844 268.658 338.369L278.376 328.64C278.772 328.241 279.243 327.925 279.762 327.709C280.281 327.494 280.837 327.384 281.399 327.386H453.457C454.357 327.385 455.221 327.026 455.858 326.388C456.494 325.751 456.853 324.886 456.853 323.984V265.095C456.852 264.193 456.494 263.329 455.857 262.691C455.221 262.054 454.357 261.695 453.457 261.694L258.584 261.694Z" fill="#3F3D56"/>
<path d="M436.711 287.476H278.689C278.085 287.476 277.507 287.236 277.08 286.808C276.653 286.381 276.413 285.801 276.413 285.197C276.413 284.593 276.653 284.013 277.08 283.586C277.507 283.158 278.085 282.918 278.689 282.918H436.711C437.314 282.918 437.893 283.158 438.32 283.586C438.747 284.013 438.987 284.593 438.987 285.197C438.987 285.801 438.747 286.381 438.32 286.808C437.893 287.236 437.314 287.476 436.711 287.476Z" fill="#6C63FF"/>
<path d="M436.42 297.157H278.689C278.085 297.157 277.507 296.917 277.08 296.489C276.653 296.062 276.413 295.482 276.413 294.878C276.413 294.273 276.653 293.694 277.08 293.267C277.507 292.839 278.085 292.599 278.689 292.599H436.42C437.024 292.599 437.603 292.839 438.03 293.267C438.457 293.694 438.696 294.273 438.696 294.878C438.696 295.482 438.457 296.062 438.03 296.489C437.603 296.917 437.024 297.157 436.42 297.157Z" fill="#E6E6E6"/>
<path d="M436.263 306.837H278.689C278.085 306.837 277.507 306.597 277.08 306.17C276.653 305.742 276.413 305.163 276.413 304.558C276.413 303.954 276.653 303.374 277.08 302.947C277.507 302.52 278.085 302.28 278.689 302.28H436.263C436.867 302.28 437.446 302.52 437.873 302.947C438.3 303.374 438.539 303.954 438.539 304.558C438.539 305.163 438.3 305.742 437.873 306.17C437.446 306.597 436.867 306.837 436.263 306.837Z" fill="#E6E6E6"/>
<path d="M685.562 251.676C685.562 253.813 685.492 255.951 685.342 258.07C685.184 260.603 684.912 263.119 684.543 265.617C683.303 274.027 680.933 282.232 677.498 290.006C677.322 290.393 677.146 290.78 676.97 291.167L676.707 291.748C676.619 291.941 676.522 292.135 676.435 292.32C676.312 292.575 676.197 292.821 676.074 293.067C675.925 293.375 675.776 293.683 675.618 293.991C675.6 294.026 675.582 294.07 675.556 294.114C675.424 294.378 675.301 294.633 675.161 294.897C675.135 294.954 675.106 295.01 675.073 295.064C674.924 295.363 674.765 295.671 674.607 295.97C674.432 296.286 674.265 296.612 674.089 296.928C673.667 297.711 673.228 298.485 672.78 299.259C672.648 299.488 672.516 299.717 672.376 299.945C672.253 300.156 672.13 300.367 671.998 300.578C671.91 300.719 671.822 300.869 671.735 301.009C671.594 301.247 671.453 301.476 671.304 301.713C670.979 302.232 670.645 302.751 670.32 303.27H670.311C670.162 303.507 670.004 303.745 669.846 303.973V303.982C669.38 304.686 668.897 305.39 668.414 306.084C668.413 306.084 668.412 306.085 668.41 306.085C668.409 306.085 668.408 306.086 668.408 306.087C668.407 306.088 668.406 306.089 668.406 306.09C668.405 306.091 668.405 306.092 668.405 306.093C668.019 306.656 667.614 307.201 667.219 307.747V307.755C666.956 308.098 666.701 308.45 666.437 308.793C666.226 309.075 666.007 309.365 665.787 309.646C665.743 309.708 665.691 309.761 665.647 309.822V309.831C665.585 309.91 665.524 309.981 665.462 310.06C664.531 311.256 663.57 312.426 662.581 313.569L662.423 313.754C662.37 313.815 662.308 313.877 662.256 313.947C662.168 314.044 662.089 314.141 662.001 314.238C661.922 314.334 661.834 314.431 661.746 314.528C656.587 320.347 650.737 325.513 644.326 329.911C643.474 330.5 642.604 331.072 641.734 331.626C641.515 331.767 641.295 331.908 641.075 332.04C641.014 332.083 640.943 332.127 640.882 332.171C640.759 332.242 640.645 332.312 640.522 332.391C640.408 332.462 640.293 332.532 640.17 332.602C639.705 332.893 639.23 333.174 638.756 333.456C638.642 333.526 638.519 333.596 638.396 333.667C638.282 333.728 638.159 333.799 638.036 333.869C638.036 333.878 638.036 333.878 638.027 333.878H638.018V333.887H638.009C637.421 334.23 636.823 334.564 636.217 334.889C635.892 335.065 635.558 335.25 635.224 335.417C634.469 335.83 633.705 336.226 632.94 336.604C632.668 336.736 632.387 336.868 632.115 337.009C631.886 337.114 631.658 337.229 631.429 337.334C631.359 337.37 631.298 337.396 631.236 337.431C631.043 337.519 630.858 337.607 630.665 337.695C630.454 337.792 630.243 337.888 630.041 337.985C629.804 338.091 629.576 338.196 629.339 338.293C628.46 338.689 627.573 339.067 626.686 339.428C623.506 340.733 620.256 341.86 616.952 342.805C616.803 342.849 616.644 342.893 616.486 342.937C615.072 343.333 613.649 343.693 612.217 344.019C609.713 344.599 607.186 345.074 604.635 345.444H604.618C604.31 345.488 604.012 345.532 603.704 345.576C603.678 345.576 603.651 345.584 603.616 345.584C603.616 345.593 603.616 345.593 603.608 345.584C603.274 345.628 602.931 345.672 602.597 345.716C602.575 345.723 602.551 345.726 602.527 345.725C602.211 345.769 601.886 345.804 601.569 345.839C601.227 345.875 600.884 345.91 600.542 345.945C600.278 345.971 600.014 345.998 599.751 346.024C599.728 346.032 599.704 346.035 599.681 346.033C599.444 346.051 599.206 346.077 598.969 346.095H598.934C598.732 346.112 598.521 346.13 598.319 346.147C595.868 346.341 593.408 346.429 590.913 346.429C588.216 346.429 585.537 346.323 582.893 346.095H582.866C582.295 346.042 581.733 345.989 581.171 345.936C581.022 345.919 580.881 345.91 580.732 345.892C580.705 345.892 580.67 345.883 580.644 345.883C580.6 345.875 580.556 345.875 580.503 345.866C580.479 345.867 580.456 345.864 580.433 345.857C580.24 345.839 580.046 345.813 579.844 345.796L579.185 345.716C578.966 345.69 578.746 345.655 578.527 345.628C578.474 345.62 578.43 345.62 578.377 345.611C578.219 345.593 578.061 345.567 577.903 345.541C577.824 345.532 577.745 345.523 577.674 345.514C577.516 345.488 577.367 345.47 577.209 345.444H577.2C572.379 344.749 567.621 343.676 562.969 342.233C562.723 342.154 562.477 342.084 562.231 342.005C562.222 342.005 562.213 341.996 562.204 341.996C562.134 341.97 562.055 341.952 561.985 341.926C561.326 341.714 560.676 341.495 560.026 341.266C559.13 340.967 558.242 340.641 557.355 340.307C557.118 340.21 556.881 340.123 556.643 340.026C556.16 339.841 555.686 339.648 555.211 339.454C554.403 339.129 553.595 338.786 552.796 338.434C552.049 338.1 551.311 337.765 550.573 337.414C550.555 337.405 550.529 337.405 550.511 337.387C550.345 337.308 550.178 337.229 550.02 337.15H550.011C545.965 335.206 542.063 332.975 538.336 330.474C537.141 329.674 535.964 328.847 534.804 327.994C533.873 327.299 532.959 326.595 532.046 325.874C527.538 322.285 523.366 318.293 519.58 313.947V313.939C519.308 313.64 519.053 313.332 518.789 313.024C518.745 312.98 518.71 312.936 518.675 312.901C518.508 312.699 518.35 312.505 518.183 312.312V312.303C517.963 312.048 517.744 311.784 517.533 311.52C517.48 311.458 517.436 311.406 517.392 311.353V311.344C517.217 311.133 517.05 310.922 516.874 310.702C516.786 310.596 516.707 310.491 516.619 310.385V310.377C516.101 309.726 515.6 309.075 515.1 308.406C514.968 308.23 514.836 308.046 514.695 307.861C514.063 307.008 513.448 306.137 512.851 305.266V305.258C512.622 304.932 512.403 304.598 512.174 304.273C511.954 303.938 511.735 303.604 511.515 303.27C511.296 302.918 511.067 302.575 510.848 302.223L510.821 302.17C510.602 301.836 510.382 301.484 510.171 301.141C510.004 300.86 509.837 300.587 509.67 300.315C509.565 300.13 509.451 299.945 509.345 299.752C509.304 299.692 509.266 299.631 509.231 299.567C508.985 299.136 508.739 298.705 508.493 298.274C508.203 297.773 507.922 297.263 507.641 296.753C507.536 296.541 507.421 296.33 507.307 296.119C507.263 296.049 507.228 295.979 507.193 295.908C507.061 295.662 506.93 295.407 506.807 295.152C506.675 294.905 506.543 294.65 506.411 294.395C506.288 294.149 506.156 293.894 506.033 293.639C505.937 293.445 505.849 293.252 505.752 293.058C505.746 293.043 505.737 293.028 505.726 293.014C505.682 292.918 505.638 292.83 505.603 292.742C505.592 292.728 505.583 292.714 505.577 292.698C505.48 292.504 505.392 292.302 505.296 292.109C505.173 291.853 505.058 291.59 504.935 291.335C504.856 291.159 504.768 290.974 504.689 290.789C504.575 290.534 504.452 290.279 504.347 290.015C504.224 289.751 504.11 289.488 503.995 289.215C503.962 289.149 503.933 289.082 503.908 289.013C503.846 288.889 503.802 288.766 503.749 288.643C503.609 288.318 503.468 287.984 503.336 287.658C503.178 287.289 503.029 286.91 502.889 286.541C502.748 286.198 502.616 285.846 502.484 285.494L502.432 285.371C500.385 279.974 498.832 274.401 497.793 268.722V268.713C497.207 265.47 496.788 262.2 496.537 258.915C496.528 258.73 496.511 258.554 496.502 258.378C496.344 256.153 496.273 253.919 496.273 251.676C496.273 250.682 496.291 249.697 496.317 248.712C496.931 228.11 504.268 208.277 517.208 192.246C517.489 191.894 517.77 191.542 518.06 191.19C518.35 190.838 518.649 190.495 518.939 190.152C528.569 178.861 540.714 169.993 554.396 164.264C568.078 158.534 582.912 156.103 597.704 157.167C612.497 158.231 626.832 162.76 639.555 170.388C652.278 178.017 663.033 188.532 670.953 201.085C671.383 201.771 671.814 202.466 672.227 203.161C672.648 203.864 673.052 204.568 673.456 205.281C681.415 219.444 685.585 235.425 685.562 251.676Z" fill="#F2F2F2"/>
<path d="M594.675 189.698C579.112 193.696 563.164 196.001 547.106 196.572C544.678 196.705 542.244 196.688 539.818 196.523C534.487 196.074 529.92 194.396 524.834 193.479C522.389 193.04 519.665 192.718 517.203 192.243C517.772 191.537 518.351 190.839 518.94 190.15C524.248 190.599 529.639 192.068 535.011 192.751C544.142 193.914 554.373 192.617 561.296 189.417C564.654 187.865 567.227 185.927 570.573 184.367C571.029 184.133 571.522 183.982 572.03 183.921C572.995 183.892 573.948 184.139 574.777 184.634C580.392 187.472 588.544 189.779 596.11 188.51C596.674 188.952 595.603 189.455 594.675 189.698Z" fill="white"/>
<path d="M628.159 199.685C628.228 199.673 628.297 199.663 628.366 199.651C628.076 199.471 627.802 199.264 627.548 199.034L628.159 199.685Z" fill="white"/>
<path d="M673.455 205.284C670.294 205.537 667.118 205.725 663.924 205.849C661.496 205.98 659.062 205.964 656.636 205.799C651.305 205.348 646.738 203.673 641.652 202.756C636.99 201.917 631.326 201.513 628.366 199.651C636.016 198.325 643.941 201.024 651.829 202.028C658.209 202.814 664.676 202.494 670.948 201.083C671.821 202.458 672.657 203.859 673.455 205.284Z" fill="white"/>
<path d="M580.244 293.139C595.943 293.139 608.67 280.113 608.67 264.044C608.67 247.975 595.943 234.949 580.244 234.949C564.544 234.949 551.817 247.975 551.817 264.044C551.817 280.113 564.544 293.139 580.244 293.139Z" fill="#FFB6B6"/>
<path d="M635.224 335.417C634.469 335.83 633.705 336.226 632.94 336.604C632.668 336.736 632.387 336.868 632.115 337.009C631.886 337.115 631.658 337.229 631.429 337.334C631.359 337.37 631.298 337.396 631.236 337.431C631.043 337.519 630.858 337.607 630.665 337.695C630.454 337.792 630.243 337.889 630.041 337.985C629.804 338.091 629.576 338.196 629.339 338.293C628.46 338.689 627.573 339.067 626.686 339.428C623.506 340.733 620.256 341.86 616.952 342.805C616.803 342.849 616.644 342.893 616.486 342.937C615.072 343.333 613.649 343.693 612.217 344.019C609.713 344.599 607.186 345.074 604.635 345.444H604.618C604.31 345.488 604.012 345.532 603.704 345.576C603.678 345.576 603.651 345.584 603.616 345.584C603.616 345.593 603.616 345.593 603.608 345.584C603.274 345.628 602.931 345.672 602.597 345.716C602.574 345.723 602.551 345.726 602.527 345.725C602.211 345.769 601.886 345.804 601.569 345.84C601.227 345.875 600.884 345.91 600.542 345.945C600.278 345.972 600.015 345.998 599.751 346.024C599.728 346.032 599.704 346.035 599.681 346.033C599.443 346.051 599.206 346.077 598.969 346.095H598.934C598.732 346.112 598.521 346.13 598.319 346.147C595.868 346.341 593.408 346.429 590.913 346.429C588.216 346.429 585.537 346.323 582.893 346.095H582.866C582.295 346.042 581.733 345.989 581.171 345.936C581.022 345.919 580.881 345.91 580.732 345.892C580.705 345.892 580.67 345.884 580.644 345.884C580.6 345.875 580.556 345.875 580.503 345.866C580.479 345.867 580.456 345.864 580.433 345.857C580.24 345.84 580.046 345.813 579.844 345.796L579.185 345.716C578.966 345.69 578.746 345.655 578.527 345.628C578.474 345.62 578.43 345.62 578.377 345.611C578.219 345.593 578.061 345.567 577.903 345.541C577.824 345.532 577.745 345.523 577.674 345.514C577.516 345.488 577.367 345.47 577.209 345.444H577.2C572.379 344.749 567.621 343.676 562.968 342.233C562.723 342.154 562.477 342.084 562.231 342.005C563.365 336.709 565.7 331.744 569.056 327.495C572.411 323.247 576.698 319.827 581.584 317.501C580.375 316.348 579.54 314.859 579.185 313.226C578.957 312.174 578.939 311.086 579.132 310.027C579.325 308.967 579.726 307.956 580.31 307.052C581.45 305.299 583.238 304.072 585.282 303.639L598.301 300.913C600.397 300.504 602.57 300.939 604.346 302.125C606.123 303.311 607.36 305.151 607.789 307.245C607.922 307.887 607.981 308.543 607.965 309.198C620.501 317.554 629.523 326.217 635.224 335.417Z" fill="#6C63FF"/>
<path d="M656.311 251.426C651.479 245.784 649.181 238.299 645.319 231.893C641.456 225.487 634.734 219.753 627.632 221.244C622.737 222.272 618.954 226.597 617.039 231.418C615.124 236.24 614.765 241.557 614.429 246.766C614.548 236.061 607.503 225.683 597.8 222.268C588.097 218.852 576.484 222.662 570.386 231.262C567.725 228.793 564.252 227.387 560.625 227.311C556.998 227.235 553.469 228.493 550.707 230.849C545.253 235.729 544.046 245.018 548.057 251.243C552.068 257.468 560.754 259.787 567.128 256.334L569.382 258.41C568.113 262.852 570.573 268.098 574.708 269.77C578.061 271.126 582.795 270.901 584.05 274.424C584.927 276.885 583.288 279.513 581.545 281.404C579.802 283.296 577.732 285.249 577.522 287.867C577.206 291.816 581.283 294.583 584.988 295.416C593.924 297.426 603.838 293.283 608.989 285.388C609.088 285.236 609.196 285.083 609.312 284.93C612.202 281.231 614.308 276.98 615.501 272.439C616.694 267.897 616.95 263.159 616.253 258.515C615.963 256.69 616.255 255.333 617.512 254.901C622.943 253.033 638.16 256.953 642.765 260.496C647.371 264.039 651.059 268.728 655.495 272.5C659.931 276.272 665.584 279.181 671.216 278.154C675.727 277.332 679.565 274.053 682.146 270.098C684.727 266.143 686.213 261.532 687.544 256.951C677.568 262.72 663.916 260.305 656.311 251.426Z" fill="#2F2E41"/>
<path d="M72.7616 192.747C72.7616 194.884 72.8318 197.022 72.9812 199.141C73.1393 201.674 73.4117 204.19 73.7806 206.688C75.0206 215.098 77.3906 223.302 80.8261 231.077C81.0018 231.464 81.1775 231.851 81.3532 232.238L81.6168 232.819C81.7046 233.012 81.8012 233.206 81.8891 233.39C82.0121 233.646 82.1263 233.892 82.2493 234.138C82.3986 234.446 82.5479 234.754 82.7061 235.062C82.7236 235.097 82.7412 235.141 82.7676 235.185C82.8993 235.449 83.0223 235.704 83.1629 235.968C83.1887 236.025 83.2181 236.081 83.2508 236.135C83.4001 236.434 83.5582 236.742 83.7164 237.041C83.8921 237.357 84.059 237.683 84.2347 237.999C84.6563 238.782 85.0956 239.556 85.5436 240.33C85.6754 240.559 85.8071 240.787 85.9477 241.016C86.0707 241.227 86.1937 241.438 86.3255 241.649C86.4133 241.79 86.5012 241.94 86.589 242.08C86.7296 242.318 86.8701 242.546 87.0195 242.784C87.3445 243.303 87.6783 243.822 88.0034 244.341H88.0122C88.1615 244.578 88.3196 244.816 88.4778 245.044V245.053C88.9434 245.757 89.4265 246.46 89.9097 247.155C89.9109 247.155 89.912 247.155 89.9131 247.156C89.9142 247.156 89.9152 247.157 89.916 247.158C89.9168 247.159 89.9175 247.16 89.9179 247.161C89.9183 247.162 89.9185 247.163 89.9185 247.164C90.305 247.727 90.7091 248.272 91.1045 248.818V248.826C91.368 249.169 91.6228 249.521 91.8863 249.864C92.0972 250.146 92.3168 250.436 92.5364 250.717C92.5803 250.779 92.633 250.832 92.677 250.893V250.902C92.7385 250.981 92.7999 251.052 92.8614 251.131C93.7926 252.327 94.7531 253.497 95.7429 254.64L95.901 254.825C95.9537 254.886 96.0152 254.948 96.0679 255.018C96.1558 255.115 96.2348 255.212 96.3227 255.309C96.4018 255.405 96.4896 255.502 96.5775 255.599C101.737 261.418 107.587 266.584 113.998 270.982C114.85 271.571 115.72 272.143 116.59 272.697C116.809 272.838 117.029 272.978 117.248 273.11C117.31 273.154 117.38 273.198 117.442 273.242C117.565 273.313 117.679 273.383 117.802 273.462C117.916 273.533 118.03 273.603 118.153 273.673C118.619 273.964 119.093 274.245 119.568 274.526C119.682 274.597 119.805 274.667 119.928 274.738C120.042 274.799 120.165 274.87 120.288 274.94C120.288 274.949 120.288 274.949 120.297 274.949H120.306V274.958H120.314C120.903 275.3 121.5 275.635 122.106 275.96C122.431 276.136 122.765 276.321 123.099 276.488C123.855 276.901 124.619 277.297 125.383 277.675C125.656 277.807 125.937 277.939 126.209 278.08C126.437 278.185 126.666 278.3 126.894 278.405C126.964 278.44 127.026 278.467 127.087 278.502C127.281 278.59 127.465 278.678 127.658 278.766C127.869 278.863 128.08 278.959 128.282 279.056C128.519 279.162 128.748 279.267 128.985 279.364C129.864 279.76 130.751 280.138 131.638 280.499C134.818 281.804 138.067 282.931 141.372 283.876C141.521 283.92 141.679 283.964 141.837 284.008C143.252 284.404 144.675 284.764 146.107 285.09C148.611 285.67 151.138 286.145 153.688 286.515H153.706C154.013 286.559 154.312 286.603 154.619 286.647C154.646 286.647 154.672 286.655 154.707 286.655C154.707 286.664 154.707 286.664 154.716 286.655C155.05 286.699 155.393 286.743 155.726 286.787C155.749 286.794 155.773 286.797 155.797 286.796C156.113 286.84 156.438 286.875 156.754 286.91C157.097 286.946 157.439 286.981 157.782 287.016C158.046 287.042 158.309 287.069 158.573 287.095C158.595 287.103 158.619 287.106 158.643 287.104C158.88 287.121 159.117 287.148 159.355 287.165H159.39C159.592 287.183 159.803 287.201 160.005 287.218C162.456 287.412 164.915 287.5 167.41 287.5C170.107 287.5 172.787 287.394 175.431 287.165H175.457C176.028 287.113 176.591 287.06 177.153 287.007C177.302 286.99 177.443 286.981 177.592 286.963C177.618 286.963 177.654 286.954 177.68 286.954C177.724 286.946 177.768 286.946 177.82 286.937C177.844 286.938 177.868 286.935 177.891 286.928C178.084 286.91 178.277 286.884 178.479 286.866L179.138 286.787C179.358 286.761 179.577 286.726 179.797 286.699C179.85 286.691 179.894 286.691 179.946 286.682C180.104 286.664 180.263 286.638 180.421 286.611C180.5 286.603 180.579 286.594 180.649 286.585C180.807 286.559 180.957 286.541 181.115 286.515H181.124C185.944 285.82 190.703 284.746 195.355 283.304C195.601 283.225 195.847 283.155 196.093 283.076C196.102 283.076 196.111 283.067 196.119 283.067C196.19 283.04 196.269 283.023 196.339 282.997C196.998 282.785 197.648 282.566 198.298 282.337C199.194 282.038 200.081 281.712 200.969 281.378C201.206 281.281 201.443 281.193 201.68 281.097C202.163 280.912 202.638 280.718 203.112 280.525C203.92 280.2 204.729 279.857 205.528 279.505C206.275 279.171 207.013 278.836 207.751 278.484C207.768 278.476 207.795 278.476 207.812 278.458C207.979 278.379 208.146 278.3 208.304 278.221H208.313C212.358 276.277 216.26 274.046 219.988 271.545C221.183 270.745 222.36 269.918 223.52 269.065C224.451 268.37 225.364 267.666 226.278 266.945C230.785 263.355 234.958 259.364 238.744 255.018V255.01C239.016 254.711 239.271 254.403 239.534 254.095C239.578 254.051 239.613 254.007 239.649 253.972C239.816 253.769 239.974 253.576 240.141 253.382V253.374C240.36 253.119 240.58 252.855 240.791 252.591C240.843 252.529 240.887 252.477 240.931 252.424V252.415C241.107 252.204 241.274 251.993 241.45 251.773C241.537 251.667 241.616 251.562 241.704 251.456V251.447C242.223 250.797 242.723 250.146 243.224 249.477C243.356 249.301 243.488 249.117 243.628 248.932C244.261 248.079 244.876 247.208 245.473 246.337V246.329C245.701 246.003 245.921 245.669 246.149 245.343C246.369 245.009 246.589 244.675 246.808 244.341C247.028 243.989 247.256 243.646 247.476 243.294L247.502 243.241C247.722 242.907 247.942 242.555 248.152 242.212C248.319 241.931 248.486 241.658 248.653 241.386C248.759 241.201 248.873 241.016 248.978 240.823C249.019 240.763 249.058 240.701 249.092 240.638C249.338 240.207 249.584 239.776 249.83 239.345C250.12 238.844 250.401 238.334 250.682 237.823C250.788 237.612 250.902 237.401 251.016 237.19C251.06 237.12 251.095 237.049 251.131 236.979C251.262 236.733 251.394 236.478 251.517 236.223C251.649 235.976 251.781 235.721 251.912 235.466C252.035 235.22 252.167 234.965 252.29 234.71C252.387 234.516 252.475 234.323 252.571 234.129C252.578 234.114 252.587 234.099 252.598 234.085C252.642 233.989 252.685 233.901 252.721 233.813C252.731 233.799 252.74 233.785 252.747 233.769C252.844 233.575 252.931 233.373 253.028 233.179C253.151 232.924 253.265 232.661 253.388 232.405C253.467 232.23 253.555 232.045 253.634 231.86C253.748 231.605 253.871 231.35 253.977 231.086C254.1 230.822 254.214 230.558 254.328 230.286C254.361 230.22 254.391 230.152 254.416 230.083C254.478 229.96 254.522 229.837 254.574 229.714C254.715 229.389 254.855 229.054 254.987 228.729C255.145 228.36 255.295 227.981 255.435 227.612C255.576 227.269 255.707 226.917 255.839 226.565L255.892 226.442C257.939 221.044 259.491 215.472 260.53 209.793V209.784C261.116 206.541 261.536 203.271 261.787 199.986C261.795 199.801 261.813 199.625 261.822 199.449C261.98 197.224 262.05 194.99 262.05 192.747C262.05 191.753 262.033 190.768 262.006 189.783C261.393 169.181 254.055 149.347 241.116 133.317C240.835 132.965 240.553 132.613 240.264 132.261C239.974 131.909 239.675 131.566 239.385 131.223C229.755 119.932 217.609 111.064 203.928 105.334C190.246 99.605 175.411 97.1741 160.619 98.238C145.827 99.3018 131.492 103.831 118.768 111.459C106.045 119.088 95.2904 129.602 87.3709 142.156C86.9405 142.842 86.51 143.537 86.0971 144.232C85.6754 144.935 85.2713 145.639 84.8672 146.351C76.9086 160.515 72.7388 176.496 72.7616 192.747Z" fill="#F2F2F2"/>
<path d="M163.648 130.769C179.211 134.767 195.16 137.072 211.217 137.643C213.645 137.776 216.079 137.759 218.505 137.593C223.837 137.144 228.404 135.467 233.49 134.55C235.935 134.11 238.659 133.789 241.12 133.314C240.551 132.608 239.972 131.91 239.383 131.221C234.075 131.67 228.685 133.139 223.313 133.822C214.181 134.985 203.95 133.687 197.028 130.488C193.669 128.936 191.097 126.998 187.75 125.438C187.295 125.204 186.802 125.053 186.294 124.992C185.329 124.963 184.376 125.21 183.547 125.705C177.932 128.543 169.78 130.85 162.213 129.581C161.649 130.023 162.721 130.526 163.648 130.769Z" fill="white"/>
<path d="M130.165 140.756C130.096 140.744 130.027 140.734 129.957 140.722C130.248 140.541 130.522 140.335 130.775 140.105L130.165 140.756Z" fill="white"/>
<path d="M84.869 146.355C88.0292 146.608 91.206 146.796 94.3993 146.92C96.8274 147.051 99.2613 147.035 101.687 146.87C107.019 146.419 111.586 144.744 116.672 143.827C121.333 142.988 126.998 142.584 129.957 140.722C122.308 139.396 114.383 142.095 106.495 143.099C100.115 143.885 93.6473 143.565 87.3755 142.154C86.5022 143.529 85.6668 144.93 84.869 146.355Z" fill="white"/>
<path d="M123.099 276.488C123.855 276.901 124.619 277.297 125.383 277.675C125.656 277.807 125.937 277.939 126.209 278.08C126.437 278.185 126.666 278.3 126.894 278.405C126.964 278.441 127.026 278.467 127.087 278.502C127.281 278.59 127.465 278.678 127.658 278.766C127.869 278.863 128.08 278.959 128.282 279.056C128.519 279.162 128.748 279.267 128.985 279.364C129.864 279.76 130.751 280.138 131.638 280.499C134.818 281.804 138.067 282.931 141.372 283.876C141.521 283.92 141.679 283.964 141.837 284.008C143.252 284.404 144.675 284.764 146.107 285.09C148.611 285.67 151.138 286.145 153.688 286.515H153.706C154.013 286.559 154.312 286.603 154.619 286.647C154.646 286.647 154.672 286.655 154.707 286.655C154.707 286.664 154.707 286.664 154.716 286.655C155.05 286.699 155.393 286.743 155.726 286.787C155.749 286.794 155.773 286.797 155.797 286.796C156.113 286.84 156.438 286.875 156.754 286.91C157.097 286.946 157.439 286.981 157.782 287.016C158.046 287.042 158.309 287.069 158.573 287.095C158.595 287.103 158.619 287.106 158.643 287.104C158.88 287.122 159.117 287.148 159.355 287.166H159.39C159.592 287.183 159.803 287.201 160.005 287.218C162.456 287.412 164.915 287.5 167.41 287.5C170.107 287.5 172.787 287.394 175.431 287.166H175.457C176.028 287.113 176.591 287.06 177.153 287.007C177.302 286.99 177.443 286.981 177.592 286.963C177.618 286.963 177.653 286.954 177.68 286.954C177.724 286.946 177.768 286.946 177.82 286.937C177.844 286.938 177.868 286.935 177.891 286.928C178.084 286.91 178.277 286.884 178.479 286.867L179.138 286.787C179.358 286.761 179.577 286.726 179.797 286.699C179.85 286.691 179.894 286.691 179.946 286.682C180.104 286.664 180.263 286.638 180.421 286.611C180.5 286.603 180.579 286.594 180.649 286.585C180.807 286.559 180.957 286.541 181.115 286.515H181.124C185.944 285.82 190.703 284.747 195.355 283.304C195.601 283.225 195.847 283.155 196.093 283.076C194.959 277.779 192.624 272.815 189.268 268.566C185.912 264.318 181.626 260.898 176.74 258.572C177.948 257.419 178.784 255.93 179.138 254.297C179.366 253.245 179.384 252.157 179.191 251.098C178.998 250.038 178.598 249.027 178.014 248.123C176.874 246.37 175.085 245.143 173.041 244.71L160.022 241.984C157.926 241.575 155.754 242.01 153.977 243.196C152.201 244.382 150.963 246.222 150.534 248.316C150.402 248.958 150.343 249.614 150.359 250.269C137.823 258.625 128.801 267.288 123.099 276.488Z" fill="#6C63FF"/>
<path d="M174.604 233.185C192.106 233.185 206.294 218.98 206.294 201.457C206.294 183.934 192.106 169.729 174.604 169.729C157.102 169.729 142.914 183.934 142.914 201.457C142.914 218.98 157.102 233.185 174.604 233.185Z" fill="#9E616A"/>
<path d="M170.101 231.489C162.167 233.634 153.42 230.782 147.229 225.372C141.038 219.962 137.165 212.296 134.933 204.378C133.299 198.578 132.524 192.141 135.103 186.696C137.682 181.252 144.623 177.579 149.979 180.329C146.675 176.475 148.325 170.102 152.184 166.805C156.042 163.509 161.34 162.564 166.386 162.047C173.709 161.297 181.273 161.213 188.242 163.589C195.21 165.964 201.542 171.157 203.723 178.196C205.95 179.234 208.459 179.504 210.855 178.962C213.252 178.42 215.402 177.098 216.967 175.202C217.371 177.379 217.047 179.629 216.045 181.603C215.043 183.578 213.419 185.166 211.424 186.123L222.101 182.658C223.937 186.549 220.72 191.365 216.605 192.611C212.491 193.858 208.05 192.495 204.145 190.695C200.241 188.895 196.457 186.619 192.216 185.917C187.975 185.214 182.993 186.579 181.031 190.408C180.004 192.414 179.95 194.763 179.354 196.937C178.757 199.11 177.246 201.364 175.002 201.542C173.584 201.654 172.195 200.898 170.781 201.052C169.913 201.223 169.114 201.644 168.482 202.263C167.849 202.882 167.41 203.672 167.22 204.537C166.867 206.272 166.863 208.059 167.207 209.796L169.919 230.552L170.101 231.489Z" fill="#2F2E41"/>
</g>
<defs>
<clipPath id="clip0_213_273">
<rect width="711" height="554" fill="white"/>
</clipPath>
</defs>
</svg>
