<svg width="348" height="354" viewBox="0 0 348 354" fill="none" xmlns="http://www.w3.org/2000/svg">
<path d="M16.1262 159.262C14.044 159.914 11.8268 160.006 9.69779 159.528C7.56879 159.051 5.60326 158.021 3.99919 156.541C2.39513 155.062 1.20919 153.187 0.560825 151.103C-0.0875411 149.02 -0.17543 146.803 0.306018 144.674C7.52972 114.622 34.9976 41.128 135.064 10.2165C178.409 -3.17319 219.978 -3.40177 258.564 9.53211C290.308 20.1284 311.381 36.7103 321.461 44.7249C324.022 46.7511 325.673 49.7117 326.052 52.9555C326.43 56.1992 325.504 59.4603 323.478 62.0215C323.453 62.0532 323.427 62.0848 323.402 62.1163C321.321 64.6853 318.314 66.3338 315.03 66.7067C311.745 67.0796 308.445 66.1469 305.841 64.1096C287.578 49.72 232.157 6.00455 142.334 33.7516C54.628 60.8449 30.8034 124.218 24.624 150.145C24.1547 152.287 23.1184 154.263 21.6234 155.867C20.1284 157.471 18.2298 158.644 16.1262 159.262Z" fill="#DDEDFF"/>
<path d="M288.866 329.481C287.872 329.802 286.842 329.996 285.799 330.058C207.624 334.268 157.885 269.322 155.843 266.615L155.465 265.99C154.218 264.056 124.123 218.267 137.372 181.902C143.458 165.277 156.916 153.608 177.489 147.253C196.621 141.342 212.278 143.09 225.604 152.606C236.53 160.359 243.533 171.921 250.321 183.086C264.437 206.268 273.088 218.063 299.92 211.258C311.702 208.268 317.203 199.057 319.716 191.881C326.482 172.357 320.485 145.739 304.62 125.601C284.122 99.4746 226.76 56.0805 155.986 77.9434C125.762 87.2796 101.028 105.678 84.4639 131.011C70.7418 152.036 62.7646 178.148 62.5897 202.499C62.3143 247.84 99.4738 307.49 99.8262 308.031C100.682 309.399 101.259 310.923 101.526 312.514C101.793 314.106 101.744 315.735 101.381 317.308C101.018 318.88 100.349 320.366 99.4125 321.68C98.4756 322.995 97.289 324.111 95.9204 324.967C95.8825 324.991 95.8444 325.014 95.8061 325.038C93.0023 326.786 89.6231 327.362 86.3984 326.64C83.1736 325.919 80.3622 323.958 78.5711 321.181C76.8939 318.453 37.2155 254.851 37.5351 202.449C37.9801 145.649 72.4965 77.8602 148.689 54.3235C183.907 43.4444 220.918 45.2729 255.747 59.5529C282.742 70.6887 307.726 89.1228 324.244 110.172C345.341 137.04 352.774 172.21 343.17 199.659C336.767 217.959 323.511 230.586 305.894 235.1C259.981 246.78 241.994 217.374 228.876 195.923C215.406 173.933 207.955 163.622 184.674 170.814C171.891 174.763 164.015 181.09 160.703 190.182C156.196 202.61 160.467 218.539 164.844 229.707C164.89 229.824 164.935 229.94 164.981 230.056C170.592 244.25 179.35 256.987 190.594 267.309C208.606 283.942 242.045 307.656 284.664 305.369C287.922 305.167 291.127 306.267 293.574 308.428C296.021 310.588 297.51 313.633 297.712 316.891C297.714 316.93 297.717 316.97 297.719 317.009C297.819 319.772 297.006 322.49 295.406 324.745C293.806 326.999 291.507 328.664 288.866 329.481Z" fill="#DDEDFF"/>
<path d="M194.068 352.83C192.439 353.334 190.724 353.503 189.027 353.326C187.331 353.148 185.688 352.629 184.198 351.799C145.641 329.953 118.573 300.57 99.0818 259.388L99.0034 259.134C86.7192 231.676 79.3244 189.725 95.6362 154.268C107.678 128.106 130.283 109.717 162.707 99.7007C201.057 87.8539 236.766 96.5762 266.073 124.803C279.402 137.831 290.241 153.182 298.057 170.102C299.303 173.146 299.301 176.558 298.051 179.601C296.8 182.643 294.402 185.071 291.376 186.359C288.349 187.648 284.937 187.693 281.878 186.485C278.818 185.277 276.357 182.914 275.027 179.905C268.408 165.784 259.27 152.988 248.06 142.145C225.471 120.653 199.21 114.298 169.918 123.347C144.606 131.166 127.175 144.99 118.253 164.438C105.385 192.432 112.01 227.388 121.623 248.901C138.81 285.324 162.649 311.159 196.584 330.352C197.986 331.143 199.218 332.202 200.211 333.469C201.203 334.736 201.937 336.186 202.369 337.736C202.801 339.286 202.924 340.906 202.73 342.504C202.536 344.102 202.029 345.645 201.239 347.047C201.207 347.103 201.175 347.158 201.143 347.213C199.563 349.897 197.041 351.899 194.068 352.83Z" fill="#DDEDFF"/>
<path d="M198.128 229.717C206.937 229.717 214.077 222.577 214.077 213.768C214.077 204.96 206.937 197.819 198.128 197.819C189.32 197.819 182.179 204.96 182.179 213.768C182.179 222.577 189.32 229.717 198.128 229.717Z" fill="#E6E6E6"/>
</svg>
