<svg width="655" height="500" viewBox="0 0 655 500" fill="none" xmlns="http://www.w3.org/2000/svg">
<path d="M397.173 150.583C397.988 150.62 398.795 150.406 399.484 149.969C400.173 149.532 400.712 148.893 401.026 148.139C401.341 147.386 401.417 146.553 401.243 145.755C401.07 144.957 400.655 144.231 400.056 143.677C399.956 143.277 399.884 142.991 399.784 142.591C399.82 142.504 399.856 142.418 399.892 142.331C403.555 133.584 415.969 133.645 419.601 142.404C422.824 150.179 426.928 157.967 427.939 166.187C428.384 169.821 428.196 173.504 427.384 177.073C434.955 160.535 438.886 142.559 438.911 124.365C438.913 119.8 438.66 115.238 438.153 110.701C437.734 106.981 437.152 103.288 436.409 99.6213C432.351 79.7268 423.638 61.08 410.987 45.2122C404.864 41.8664 399.912 36.7213 396.798 30.4703C395.67 28.2232 394.873 25.8245 394.432 23.3488C395.122 23.4395 397.036 12.9046 396.515 12.2582C397.478 10.7954 399.201 10.0683 400.252 8.64083C405.481 1.54174 412.684 2.78129 416.445 12.4284C424.479 16.4888 424.556 23.2227 419.627 29.6991C416.491 33.8195 416.06 39.3948 413.308 43.806C413.591 44.1689 413.886 44.5204 414.169 44.8834C419.344 51.5473 423.854 58.703 427.635 66.248C426.566 57.8799 428.145 47.7985 430.838 41.2999C433.902 33.8955 439.647 27.6595 444.706 21.2584C450.783 13.5696 463.244 16.9251 464.314 26.6718C464.325 26.7662 464.335 26.8605 464.344 26.9548C463.593 27.3793 462.858 27.8299 462.138 28.3066C461.234 28.9115 460.533 29.7759 460.128 30.7863C459.723 31.7968 459.632 32.9063 459.867 33.9694C460.102 35.0325 460.653 35.9997 461.446 36.7442C462.239 37.4887 463.239 37.9758 464.314 38.1417L464.424 38.1587C464.156 40.8708 463.683 43.5586 463.008 46.1988C469.498 71.3333 455.487 80.4878 435.48 80.8991C435.039 81.1259 434.608 81.3526 434.167 81.5682C437.966 92.3492 440.348 103.579 441.255 114.976C441.769 121.699 441.739 128.453 441.165 135.172L441.199 134.934C442.648 127.463 446.628 120.722 452.466 115.849C461.137 108.716 473.387 106.089 482.741 100.356C487.244 97.596 493.014 101.163 492.228 106.39C492.215 106.474 492.203 106.557 492.19 106.641C490.795 107.21 489.437 107.865 488.124 108.603C487.373 109.027 486.637 109.478 485.918 109.954C485.014 110.559 484.313 111.424 483.908 112.434C483.503 113.445 483.412 114.554 483.647 115.617C483.882 116.68 484.432 117.647 485.226 118.392C486.019 119.136 487.019 119.624 488.094 119.79L488.204 119.806C488.283 119.818 488.351 119.829 488.43 119.841C486.048 125.538 482.703 130.781 478.545 135.342C474.486 157.284 457.057 159.365 438.413 152.976H438.402C436.356 161.878 433.392 170.543 429.558 178.831H397.965C397.851 178.479 397.75 178.117 397.648 177.765C400.572 177.949 403.508 177.774 406.39 177.243C404.046 174.363 401.702 171.46 399.357 168.58C399.305 168.526 399.256 168.469 399.21 168.41C398.021 166.935 396.821 165.473 395.632 163.998L395.631 163.997C395.568 159.478 396.086 154.97 397.172 150.583L397.173 150.583Z" fill="#F2F2F2"/>
<path d="M498.609 69.6127C492.735 48.1646 540.115 29.7723 552.557 47.0446C554.287 44.589 560.68 43.0974 563.614 43.8507C566.548 44.604 569.015 46.4872 571.422 48.3101C574.732 50.8562 578.161 53.4926 580.192 57.1535C582.238 60.7994 582.554 65.771 579.801 68.9348C577.62 71.4507 571.181 73.0778 567.902 73.7407C565.615 74.2077 563.689 74.5843 562.034 74.8555C560.531 72.6868 559.839 70.0572 560.079 67.4282C558.965 68.1806 558.031 69.1706 557.344 70.3271C556.658 71.4836 556.235 72.778 556.107 74.1173C556.062 74.6747 574.596 142.967 574.596 142.967C572.369 144.236 570.027 145.29 567.601 146.115C562.801 138.769 559.125 130.746 556.694 122.312C556.135 127.952 556.206 133.636 556.904 139.26C557.276 142.414 557.808 145.547 558.499 148.646C536.475 153.407 503.348 151.84 488.936 131.592C488.933 131.508 488.931 131.425 488.929 131.341C488.917 130.541 488.629 129.771 488.113 129.161C487.597 128.552 486.885 128.14 486.1 127.998C485.314 127.856 484.504 127.992 483.807 128.383C483.111 128.773 482.572 129.394 482.282 130.139C481.933 131.032 481.611 131.806 481.324 132.421C477.126 117.385 482.557 99.9847 498.609 69.6127Z" fill="#2F2E41"/>
<path d="M461.131 429.198V429.901C461.103 429.667 461.103 429.432 461.131 429.198Z" fill="#2F2E41"/>
<path d="M482.699 307.816C483.259 307.664 483.829 307.553 484.405 307.484C483.744 307.592 483.175 307.703 482.699 307.816Z" fill="#2F2E41"/>
<path d="M482.2 307.944C482.351 307.901 482.52 307.859 482.699 307.816C482.532 307.86 482.371 307.892 482.2 307.944Z" fill="#2F2E41"/>
<path d="M641.549 499.481H560.819C559.667 498.56 558.867 497.271 558.552 495.829C558.237 494.387 558.427 492.881 559.09 491.563C561.296 486.498 556.974 481.87 556.974 481.87C555.507 480.148 554.487 478.091 554.005 475.88C553.522 473.669 553.592 471.374 554.207 469.196C556.346 461.715 547.964 440.599 547.964 440.599C547.964 440.599 543.445 467.865 537.908 499.481H461.131C459.844 497.287 459.166 494.789 459.166 492.245C459.166 489.7 459.844 487.202 461.131 485.009C465.605 477.411 461.131 475.954 461.131 475.954C461.131 475.954 456.656 467.452 461.131 461.279C465.605 455.106 461.131 429.901 461.131 429.901C461.299 431.015 462.574 428.989 464.536 424.741C467.524 418.277 472.09 406.653 476.703 393.159C480.001 383.528 483.326 372.931 486.105 362.57H486.112C486.84 359.848 487.53 357.151 488.182 354.479C489.457 349.238 490.549 344.145 491.379 339.363C493.18 329.063 493.773 320.216 492.391 314.461C491.244 309.673 488.735 307.032 484.405 307.484C486.725 307.099 490.125 306.735 494.313 306.39C495.068 306.329 495.85 306.269 496.66 306.201C527.9 303.837 594.925 302.48 594.925 302.48L615.455 339.296L641.454 385.932C641.454 385.932 640.746 448.494 641.549 499.481Z" fill="#2F2E41"/>
<path d="M555.381 143.354L508.082 133.306L498.691 152.237L467.065 170.573C467.065 170.573 487.451 254.044 487.335 265.784C487.039 295.59 439.417 362.405 475.388 357.265C511.358 352.125 518.665 330.595 530.213 333.999C540.627 337.069 553.343 350.728 561.857 340.959C570.37 331.191 573.369 342.471 578.752 342.861C581.31 343.046 579.769 330.526 586.206 343.25C592.643 355.974 626.775 338.846 615.207 327.261C595.94 307.967 592.024 165.735 592.024 165.735L570.576 159.126L555.381 143.354Z" fill="#E6E6E6"/>
<path d="M466.171 446.488C468.071 444.218 469.012 441.296 468.794 438.342C468.576 435.388 467.215 432.637 465.001 430.672C464.545 430.28 464.057 429.926 463.543 429.615L471.451 390.747L453.169 379.789L448.084 434.206C446.959 436.443 446.605 438.989 447.077 441.448C447.549 443.907 448.821 446.141 450.694 447.8C451.768 448.734 453.016 449.446 454.366 449.897C455.716 450.348 457.141 450.529 458.561 450.428C459.98 450.327 461.366 449.947 462.638 449.31C463.911 448.673 465.046 447.792 465.979 446.715C466.044 446.64 466.108 446.564 466.171 446.488Z" fill="#A0616A"/>
<path d="M522.936 241.612C522.821 240.363 521.229 239.796 519.024 239.012C516.809 238.329 514.703 237.33 512.772 236.047C507.889 232.515 509.811 228.82 512.469 223.714C512.988 222.721 513.527 221.688 514.033 220.614C515.537 217.433 513.143 204.31 506.904 181.603C504.982 174.613 504.989 169.675 503.66 166.4C502.339 163.124 499.688 161.51 492.465 161.172C483.734 160.731 475.185 163.774 468.691 169.635C468.516 169.79 468.334 169.959 468.158 170.121C467.828 170.432 467.504 170.749 467.187 171.074C461.182 177.124 457.745 185.265 457.596 193.794L457.563 195.246L456.072 264.623L451.884 325.504L446.111 409.369L450.387 409.578L467.45 410.429L469.521 410.53L474.43 389.903L480.338 365.082L482.51 355.965L489.248 327.679L492.391 314.461L494.313 306.39L495.095 303.094L498.912 287.074C499 286.736 507.781 252.041 517.905 246.239C521.681 244.078 523.044 242.821 522.936 241.612Z" fill="#E6E6E6"/>
<path d="M636.519 446.074C634.386 444.022 633.137 441.218 633.037 438.258C632.937 435.298 633.995 432.416 635.985 430.225C636.396 429.786 636.844 429.381 637.322 429.016L625.291 391.224L642.292 378.363L653.184 431.919C654.542 434.021 655.167 436.515 654.962 439.01C654.756 441.506 653.731 443.863 652.047 445.714C651.079 446.758 649.914 447.601 648.621 448.195C647.327 448.788 645.929 449.121 644.507 449.173C643.085 449.226 641.667 448.997 640.333 448.501C639 448.004 637.776 447.25 636.734 446.28C636.661 446.212 636.589 446.144 636.519 446.074Z" fill="#A0616A"/>
<path d="M644.835 364.069C644.835 364.069 631.576 317.349 635.62 312.292C639.663 307.234 627.72 306.246 632.867 296.827C638.014 287.407 630.91 285.832 630.91 285.832L627.055 264.175L620.164 210.979L619.955 209.397L617.95 193.921C617.391 189.5 615.946 185.238 613.704 181.39C611.462 177.541 608.468 174.185 604.901 171.521C604.718 171.382 604.532 171.248 604.346 171.113C603.498 170.502 602.631 169.935 601.746 169.413C595.131 165.505 587.363 164.028 579.777 165.234C565.485 167.464 569.933 172.801 567.615 187.1C563.848 210.35 562.871 223.651 564.707 226.657C565.326 227.669 565.976 228.637 566.596 229.566C569.787 234.364 572.094 237.825 567.616 241.869C565.831 243.348 563.846 244.564 561.719 245.483C559.614 246.503 558.091 247.236 558.111 248.49C558.135 249.706 559.623 250.804 563.607 252.544C568.435 254.66 573.62 262.66 577.868 270.832C581.237 277.419 584.243 284.186 586.87 291.104L623.376 393.92L629.33 410.688L631.384 410.363L648.251 407.685L652.481 407.014L644.835 364.069Z" fill="#E6E6E6"/>
<path d="M535.425 132.596C556.737 132.596 574.014 115.295 574.014 93.9524C574.014 72.6101 556.737 55.3087 535.425 55.3087C514.114 55.3087 496.837 72.6101 496.837 93.9524C496.837 115.295 514.114 132.596 535.425 132.596Z" fill="#A0616A"/>
<path d="M477.548 72.6259C471.673 51.1777 519.053 32.7855 531.495 50.0578C533.225 47.6022 539.619 46.1106 542.552 46.8639C545.486 47.6172 547.953 49.5003 550.36 51.3233C553.67 53.8694 557.1 56.5058 559.131 60.1667C561.177 63.8126 561.493 68.7842 558.74 71.9479C556.558 74.4639 550.12 76.091 546.84 76.7538C544.553 77.2209 542.628 77.5975 540.973 77.8687C539.47 75.7 538.777 73.0704 539.017 70.4414C537.903 71.1938 536.97 72.1838 536.283 73.3403C535.596 74.4968 535.174 75.7911 535.046 77.1305C535 77.6879 553.535 145.98 553.535 145.98C551.308 147.249 548.965 148.303 546.539 149.128C541.739 141.782 538.063 133.759 535.632 125.325C535.074 130.965 535.144 136.649 535.843 142.274C536.214 145.427 536.747 148.56 537.438 151.659C515.413 156.42 482.286 154.853 467.874 134.605C467.872 134.522 467.869 134.438 467.867 134.354C467.856 133.555 467.567 132.784 467.051 132.174C466.535 131.565 465.823 131.154 465.038 131.012C464.253 130.87 463.442 131.006 462.746 131.396C462.049 131.787 461.51 132.408 461.221 133.152C460.871 134.046 460.549 134.819 460.262 135.434C456.065 120.399 461.496 102.998 477.548 72.6259Z" fill="#2F2E41"/>
<path d="M286.172 206.157C285.357 206.194 284.551 205.98 283.861 205.543C283.172 205.106 282.634 204.467 282.319 203.714C282.004 202.96 281.929 202.127 282.102 201.329C282.276 200.531 282.69 199.805 283.289 199.251C283.389 198.851 283.461 198.565 283.562 198.165C283.526 198.078 283.49 197.992 283.453 197.905C279.79 189.158 267.376 189.219 263.745 197.978C260.521 205.753 256.417 213.541 255.407 221.761C254.962 225.395 255.149 229.078 255.962 232.647C248.391 216.109 244.459 198.133 244.434 179.939C244.432 175.374 244.686 170.812 245.193 166.275C245.612 162.555 246.193 158.862 246.937 155.195C250.995 135.301 259.707 116.654 272.358 100.786C278.482 97.4405 283.434 92.2954 286.547 86.0444C287.675 83.7973 288.472 81.3986 288.914 78.9229C288.223 79.0136 286.309 68.4787 286.83 67.8323C285.868 66.3695 284.145 65.6424 283.093 64.2149C277.865 57.1158 270.661 58.3554 266.9 68.0025C258.867 72.0629 258.789 78.7968 263.718 85.2732C266.854 89.3936 267.285 94.9689 270.037 99.3801C269.754 99.743 269.459 100.095 269.176 100.457C264.001 107.121 259.491 114.277 255.71 121.822C256.78 113.454 255.2 103.373 252.508 96.874C249.443 89.4696 243.698 83.2336 238.639 76.8325C232.563 69.1437 220.102 72.4992 219.031 82.2459C219.021 82.3403 219.011 82.4346 219.001 82.5289C219.752 82.9534 220.488 83.404 221.208 83.8807C222.112 84.4856 222.812 85.35 223.217 86.3604C223.623 87.3709 223.714 88.4803 223.478 89.5435C223.243 90.6066 222.693 91.5738 221.899 92.3183C221.106 93.0628 220.106 93.5499 219.032 93.7158L218.922 93.7328C219.189 96.4449 219.663 99.1327 220.337 101.773C213.847 126.907 227.859 136.062 247.865 136.473C248.307 136.7 248.737 136.927 249.179 137.142C245.38 147.923 242.997 159.153 242.09 170.55C241.577 177.273 241.607 184.028 242.181 190.746L242.147 190.508C240.697 183.037 236.717 176.296 230.88 171.423C222.209 164.29 209.959 161.663 200.605 155.93C196.102 153.17 190.332 156.737 191.118 161.965C191.13 162.048 191.143 162.131 191.156 162.215C192.55 162.784 193.908 163.439 195.221 164.177C195.972 164.601 196.708 165.052 197.428 165.528C198.332 166.133 199.032 166.998 199.438 168.008C199.843 169.019 199.934 170.128 199.699 171.191C199.463 172.254 198.913 173.222 198.119 173.966C197.326 174.711 196.326 175.198 195.252 175.364L195.142 175.381C195.062 175.392 194.994 175.403 194.915 175.415C197.298 181.112 200.642 186.355 204.801 190.916C208.859 212.858 226.288 214.94 244.932 208.55H244.944C246.989 217.452 249.953 226.117 253.788 234.405H285.381C285.494 234.054 285.596 233.691 285.698 233.339C282.773 233.523 279.838 233.348 276.956 232.818C279.3 229.937 281.644 227.034 283.988 224.154C284.04 224.1 284.089 224.043 284.135 223.984C285.324 222.51 286.524 221.047 287.713 219.572L287.714 219.571C287.777 215.052 287.26 210.544 286.173 206.157L286.172 206.157Z" fill="#F2F2F2"/>
<path d="M138.756 47.0454C138.039 48.7188 115.93 48.5395 114.917 50.0296C107.11 61.5335 135.253 110.48 127.446 121.999L126.359 123.297C128.906 122.121 131.352 120.739 133.674 119.164C133.883 114.449 134.091 109.719 134.315 105.004C136.653 108 138.541 111.322 139.917 114.866C141.735 113.583 143.226 111.205 151.017 106.526C154.171 103.056 157.807 100.058 161.814 97.6253L138.756 47.0454Z" fill="#2F2E41"/>
<path d="M154.811 141.326C152.371 139.735 149.587 138.749 146.691 138.45C143.794 138.151 140.869 138.549 138.156 139.609C135.444 140.67 133.023 142.363 131.095 144.548C129.167 146.733 127.786 149.347 127.069 152.173L93.4707 239.842L35.7189 207.008C35.4653 203.234 34.0248 199.637 31.6038 196.734C29.1828 193.831 25.9059 191.769 22.2429 190.846C18.5799 189.923 14.7191 190.186 11.2142 191.596C7.70927 193.006 4.74035 195.491 2.73323 198.696C0.7261 201.9 -0.216116 205.659 0.0417158 209.432C0.299548 213.206 1.74419 216.801 4.16843 219.702C6.59266 222.603 9.87195 224.66 13.536 225.579C17.2 226.498 21.0605 226.231 24.5638 224.817C36.7258 237.816 89.4526 291.112 111.281 270.288C129.629 252.784 156.107 184.947 162.481 161.522C163.502 157.776 163.31 153.802 161.931 150.173C160.553 146.543 158.06 143.446 154.811 141.326Z" fill="#FFB6B6"/>
<path d="M91.7224 273.962L102.325 321.953L179.855 328.975L186.98 287.188L91.7224 273.962Z" fill="#FFB6B6"/>
<path d="M210.151 397.028C210.115 397.716 210.073 398.397 210.023 399.085C209.28 409.029 208.43 420.498 207.509 433.066C206.057 453.01 204.435 475.72 202.799 499.481H40.1797L71.718 404.549C71.718 404.549 84.4525 397.528 77.9692 385.733C71.486 373.938 84.2427 383.338 84.3614 366.493C84.48 349.648 95.9113 331.727 95.9113 331.727L97.7882 306.222L98.8576 306.244L183.485 307.655L185.029 307.683L187.629 329.578C203.411 348.385 211.462 372.498 210.151 397.028Z" fill="#2F2E41"/>
<path d="M140.111 118.068L178.702 116.078L196.626 144.441C196.626 144.441 230.351 150.087 228.013 189.884C225.675 229.682 186.98 264.604 186.98 264.604L188.634 258.925L185.761 267.145L186.13 271.761L190.049 276.649L190.452 281.705L186.98 289.703C187.432 290.428 187.671 291.265 187.672 292.119C187.672 292.973 187.434 293.81 186.983 294.536C186.533 295.261 185.888 295.846 185.123 296.223C184.357 296.6 183.502 296.755 182.653 296.669L126.893 291.073C125.623 287.576 124.605 283.392 119.516 290.358L114.263 289.848L92.4278 287.729L91.1426 283.041C90.4123 280.377 90.2985 277.581 90.8098 274.866C91.3212 272.152 92.4441 269.589 94.0933 267.375C92.1966 261.427 92.6934 254.973 95.4778 249.387L95.5822 249.177L97.901 247.242C97.901 247.242 72.5324 209.074 101.655 180.327L113.343 160.429L126.422 144.45L140.111 118.068Z" fill="#F24B26"/>
<path d="M149.716 101.326C169.926 101.326 186.31 84.9184 186.31 64.679C186.31 44.4396 169.926 28.0323 149.716 28.0323C129.505 28.0323 113.122 44.4396 113.122 64.679C113.122 84.9184 129.505 101.326 149.716 101.326Z" fill="#FFB6B6"/>
<path d="M177.509 117.471C174.529 114.978 172.455 111.568 171.609 107.773C170.932 112.381 171.109 117.075 172.131 121.619C170.149 123.111 168.227 124.529 166.409 125.812C165.033 122.268 163.146 118.945 160.807 115.949C160.584 120.664 160.375 125.394 160.167 130.109C157.845 131.684 155.398 133.067 152.851 134.242L153.939 132.944C161.746 121.425 141.542 100.223 149.35 88.7189C151.54 85.496 141.647 60.0264 134.108 58.8775C127.403 57.8629 127.686 59.8026 121.19 61.2201C120.515 58.4026 119.468 55.6879 118.076 53.1479C118.446 55.9782 118.361 58.8496 117.823 61.6527C115.513 61.7422 113.696 60.2686 111.237 59.8921C95.5479 57.4899 97.1422 40.4952 101.508 35.1088C105.888 29.7374 120.43 28.1259 127.135 26.3801C127.745 25.7833 129.131 26.1564 129.742 25.5894C142.591 13.8131 159.776 11.8629 175.241 17.0824C191.733 22.6486 202.016 33.4216 207.293 50.0295L208.807 63.3201C210.165 67.5935 208.457 87.477 207.293 91.8075C202.771 108.641 193.141 100.238 177.509 117.471Z" fill="#2F2E41"/>
<path d="M230.867 291.094L229.427 178.73C229.352 173.97 227.411 169.43 224.022 166.09C220.634 162.75 216.071 160.879 211.317 160.879C208.857 160.879 206.424 161.38 204.164 162.353C201.905 163.325 199.867 164.749 198.174 166.536C196.482 168.323 195.171 170.437 194.321 172.748C193.471 175.059 193.1 177.519 193.23 179.979L198.3 296.651L198.396 367.675C195.408 368.944 192.883 371.104 191.163 373.86C189.443 376.616 188.612 379.836 188.783 383.082C188.954 386.327 190.119 389.441 192.119 392.001C194.119 394.561 196.857 396.442 199.962 397.389C203.067 398.336 206.387 398.302 209.472 397.294C212.557 396.285 215.258 394.349 217.206 391.75C219.155 389.151 220.257 386.014 220.364 382.766C220.47 379.517 219.575 376.315 217.801 373.594L230.867 291.094Z" fill="#FFB6B6"/>
<path d="M419.734 436.466C419.734 436.466 417.506 476.596 416.482 499.484H339.775C338.196 478.655 337.664 463.353 337.664 463.353L333.467 499.484H255.931L251.124 432.568L274.354 374.904C274.354 374.904 400.24 366.16 411.918 377.252C423.587 388.335 419.734 436.466 419.734 436.466Z" fill="#2F2E41"/>
<path d="M351.902 98.882C375.043 98.882 393.802 80.0959 393.802 56.9221C393.802 33.7483 375.043 14.9622 351.902 14.9622C328.762 14.9622 310.002 33.7483 310.002 56.9221C310.002 80.0959 328.762 98.882 351.902 98.882Z" fill="#FFB6B6"/>
<path d="M400.741 43.2877C396.437 45.2529 393.649 59.486 390.266 56.1771C386.883 52.8682 387.109 48.5622 382.549 47.341C378.866 46.3507 374.902 47.4825 371.543 49.2676C370.943 49.5826 370.362 49.9251 369.795 50.2657C369.421 50.0153 369.049 49.7798 368.649 49.5625C365.644 47.9521 362.137 47.5571 358.85 48.4587C361.447 49.3299 363.706 50.9967 365.305 53.2234C364.181 53.9779 363.042 54.7343 361.877 55.4046C352.146 61.0284 338.299 48.7997 328.056 44.2057C334.472 56.2629 331.313 61.2564 325.742 73.7261L325.549 74.4362C325.866 71.3109 316.209 68.9818 316.769 73.3813C317.166 76.5049 319.866 83.4479 321.378 86.2058C310.608 73.7355 303.249 58.4753 304.802 42.7331C305.14 39.4261 305.038 35.9369 306.741 33.0667C308.446 30.2113 312.001 28.2075 315.145 29.2964C314.879 24.276 315.976 19.2772 318.32 14.8313C320.664 10.3854 324.167 6.65871 328.457 4.04733C332.747 1.43596 337.663 0.0375415 342.683 0.000745368C347.703 -0.0360508 352.64 1.29016 356.967 3.83837C360.988 6.20133 364.345 9.54331 368.031 12.426C371.717 15.3088 375.965 17.8215 380.639 18.0595C383.604 18.2027 386.83 17.4778 389.377 19.0156C392.328 20.7999 392.833 24.5357 393.276 28.1304C390.644 28.3903 388.149 29.4299 386.111 31.1166C388.833 30.8384 391.575 31.4272 393.944 32.7992C393.989 32.8196 394.032 32.844 394.072 32.8722C395.632 38.8132 395.473 40.1302 400.741 43.2877Z" fill="#2F2E41"/>
<path d="M256.117 395.204C291.798 353.378 279.746 300.18 265.585 246.479L268.279 167.146C268.411 163.254 269.477 159.452 271.385 156.059C273.294 152.667 275.989 149.784 279.245 147.654L315.671 123.823L329.848 103.295L368.929 107.209L390.6 130.16L414.589 148.499C420.612 153.104 425.195 159.337 427.797 166.464C430.399 173.591 430.913 181.315 429.277 188.724L406.321 292.687C406.321 292.687 415.922 346.583 410.064 352.535C404.205 358.487 389.11 352.538 401.081 359.22C415.447 367.238 428.509 365.759 421.239 373.039C413.969 380.319 423.17 390.441 423.17 390.441L256.117 395.204Z" fill="#E76D6D"/>
<path d="M271.373 455.991L277.321 413.55L253.585 406.765L248.891 451.859C246.926 453.663 245.503 455.98 244.782 458.549C244.06 461.118 244.068 463.838 244.806 466.403C245.543 468.967 246.98 471.275 248.955 473.067C250.93 474.858 253.366 476.063 255.987 476.545C258.608 477.026 261.312 476.766 263.793 475.793C266.275 474.821 268.437 473.174 270.035 471.039C271.634 468.903 272.606 466.364 272.842 463.705C273.078 461.047 272.569 458.375 271.373 455.991Z" fill="#FFB6B6"/>
<path d="M316.561 131.474C316.561 131.474 248.999 153.494 247.388 169.606C245.777 185.718 246.312 195.582 239.181 260.056L239.557 433.731C239.557 433.731 284.853 443.443 280.207 433.059C275.562 422.675 277.183 417.79 277.183 417.79C277.183 417.79 286.894 413.952 284.463 401.76C282.032 389.568 294.223 329.148 294.223 329.148L301.918 220.787L316.561 131.474Z" fill="#E76D6D"/>
<path d="M399.866 453.743L396.7 411.004L420.828 405.787L422.569 451.092C424.412 453.021 425.68 455.426 426.233 458.036C426.785 460.647 426.599 463.361 425.696 465.872C424.793 468.383 423.208 470.592 421.121 472.25C419.033 473.909 416.524 474.951 413.877 475.26C411.23 475.569 408.549 475.133 406.136 474C403.723 472.867 401.673 471.082 400.218 468.847C398.762 466.611 397.958 464.013 397.896 461.345C397.833 458.677 398.516 456.044 399.866 453.743Z" fill="#FFB6B6"/>
<path d="M375.956 126.962C375.956 126.962 441.936 153.358 442.491 169.541C443.047 185.724 441.87 195.531 444.777 260.334L433.066 433.614C433.066 433.614 387.234 440.34 392.547 430.282C397.86 420.225 396.561 415.244 396.561 415.244C396.561 415.244 387.121 410.778 390.343 398.771C393.564 386.764 385.343 325.675 385.343 325.675L384.738 217.043L375.956 126.962Z" fill="#E76D6D"/>
</svg>
