<svg width="426" height="274" viewBox="0 0 426 274" fill="none" xmlns="http://www.w3.org/2000/svg">
<path d="M426 0.76355H0.181641V273.476H426V0.76355Z" fill="#E6E6E6"/>
<path d="M413.824 34.9685H12.3579V138.929H413.824V34.9685Z" fill="white"/>
<path d="M197.12 49.9851H112.219V54.8587H197.12V49.9851Z" fill="#E6E6E6"/>
<path d="M243.324 67.7627H112.219V72.6363H243.324V67.7627Z" fill="#007CFF"/>
<path d="M219.067 84.512H112.219V89.3856H219.067V84.512Z" fill="#E6E6E6"/>
<path d="M174.595 101.198H112.219V106.071H174.595V101.198Z" fill="#E6E6E6"/>
<path d="M206.361 117.884H112.219V122.757H206.361V117.884Z" fill="#E6E6E6"/>
<path d="M83.9185 48.2524H73.5225V58.6485H83.9185V48.2524Z" fill="#E6E6E6"/>
<path d="M83.9185 65.0015H73.5225V75.3975H83.9185V65.0015Z" fill="#007CFF"/>
<path d="M83.9185 81.7507H73.5225V92.1468H83.9185V81.7507Z" fill="#E6E6E6"/>
<path d="M83.9185 98.4998H73.5225V108.896H83.9185V98.4998Z" fill="#E6E6E6"/>
<path d="M83.9185 115.249H73.5225V125.645H83.9185V115.249Z" fill="#E6E6E6"/>
<path d="M357.681 71.9321H323.027V106.586H357.681V71.9321Z" fill="#E6E6E6"/>
<path d="M413.824 153.368H12.3579V257.328H413.824V153.368Z" fill="white"/>
<path d="M101.823 162.607H91.4268V173.003H101.823V162.607Z" fill="#E6E6E6"/>
<path d="M83.9185 162.607H73.5225V173.003H83.9185V162.607Z" fill="#007CFF"/>
<path d="M249.789 185.342C246.62 179.977 242.224 175.441 236.961 172.107C231.698 168.773 225.719 166.736 219.515 166.163C213.311 165.589 207.059 166.497 201.275 168.811C195.49 171.124 190.337 174.778 186.239 179.471L183.706 177.257C188.153 172.162 193.746 168.195 200.025 165.683C206.304 163.171 213.089 162.186 219.824 162.808C226.558 163.429 233.048 165.641 238.761 169.261C244.474 172.88 249.246 177.804 252.684 183.628L249.789 185.342Z" fill="#E6E6E6"/>
<path d="M251.374 229.171L248.582 227.293C252.717 221.125 255.025 213.914 255.239 206.491C255.452 199.069 253.563 191.737 249.789 185.341L252.684 183.628C256.782 190.57 258.833 198.53 258.602 206.588C258.37 214.647 255.864 222.475 251.374 229.171Z" fill="#007CFF"/>
<path d="M184.056 233.858C177.101 226.091 173.227 216.049 173.162 205.624C173.098 195.199 176.848 185.11 183.705 177.257L186.239 179.471C179.922 186.705 176.467 195.999 176.527 205.603C176.586 215.207 180.155 224.458 186.562 231.613L184.056 233.858Z" fill="#007CFF"/>
<path d="M215.891 248.089C209.883 248.084 203.943 246.815 198.458 244.363C192.973 241.911 188.066 238.332 184.056 233.858L186.562 231.613C190.562 236.082 195.531 239.578 201.089 241.834C206.646 244.09 212.646 245.046 218.629 244.629C224.613 244.213 230.422 242.434 235.613 239.429C240.804 236.425 245.24 232.274 248.582 227.293L251.375 229.171C247.468 234.995 242.188 239.769 235.999 243.068C229.81 246.368 222.904 248.092 215.891 248.089Z" fill="#007CFF"/>
<path d="M357.681 185.134H323.027V219.787H357.681V185.134Z" fill="#E6E6E6"/>
<path d="M106.732 207.658H72.0786V242.312H106.732V207.658Z" fill="#E6E6E6"/>
<path d="M425.818 0.522095H0V18.6124H425.818V0.522095Z" fill="#007CFF"/>
<path d="M13.4432 13.1238C15.295 13.1238 16.7961 11.6226 16.7961 9.77087C16.7961 7.91911 15.295 6.41797 13.4432 6.41797C11.5915 6.41797 10.0903 7.91911 10.0903 9.77087C10.0903 11.6226 11.5915 13.1238 13.4432 13.1238Z" fill="white"/>
<path d="M26.1703 13.1238C28.022 13.1238 29.5232 11.6226 29.5232 9.77087C29.5232 7.91911 28.022 6.41797 26.1703 6.41797C24.3185 6.41797 22.8174 7.91911 22.8174 9.77087C22.8174 11.6226 24.3185 13.1238 26.1703 13.1238Z" fill="white"/>
<path d="M38.8968 13.1238C40.7486 13.1238 42.2497 11.6226 42.2497 9.77087C42.2497 7.91911 40.7486 6.41797 38.8968 6.41797C37.0451 6.41797 35.5439 7.91911 35.5439 9.77087C35.5439 11.6226 37.0451 13.1238 38.8968 13.1238Z" fill="white"/>
</svg>
