<svg width="20" height="13" viewBox="0 0 20 13" fill="none" xmlns="http://www.w3.org/2000/svg">
<path fill-rule="evenodd" clip-rule="evenodd" d="M7.13358 12.1337C6.89917 12.3684 6.58128 12.5002 6.24982 12.5002C5.91836 12.5002 5.60047 12.3684 5.36606 12.1337L0.365988 7.1274C0.131646 6.89269 0 6.5744 0 6.24253C0 5.91065 0.131646 5.59237 0.365988 5.35766L5.36606 0.351334C5.60181 0.123349 5.91757 -0.00280431 6.24532 4.73129e-05C6.57307 0.00289894 6.88659 0.134527 7.11835 0.36658C7.35011 0.598633 7.48158 0.912546 7.48443 1.24071C7.48727 1.56887 7.36128 1.88502 7.13358 2.12107L4.26729 4.99095H18.75C19.0815 4.99095 19.3995 5.12281 19.6339 5.35753C19.8683 5.59224 20 5.91059 20 6.24253C20 6.57447 19.8683 6.89281 19.6339 7.12753C19.3995 7.36225 19.0815 7.49411 18.75 7.49411H4.26729L7.13358 10.364C7.36792 10.5987 7.49957 10.917 7.49957 11.2489C7.49957 11.5807 7.36792 11.899 7.13358 12.1337Z" fill="black"/>
</svg>
